<?xml version="1.0" encoding="utf-8"?>
<!-- Generator: Adobe Illustrator 24.3.0, SVG Export Plug-In . SVG Version: 6.00 Build 0)  -->
<svg version="1.1" id="Layer_1" xmlns="http://www.w3.org/2000/svg" xmlns:xlink="http://www.w3.org/1999/xlink" x="0px" y="0px"
	 viewBox="0 0 60 60" style="enable-background:new 0 0 60 60;" xml:space="preserve">
<style type="text/css">
	.st0{fill:url(#SVGID_1_);}
	.st1{fill:url(#SVGID_2_);}
	.st2{fill:url(#SVGID_3_);}
	.st3{fill:url(#SVGID_4_);}
	.st4{fill:none;}
	.st5{fill:url(#SVGID_5_);}
	.st6{fill:#FFFFFF;}
	.st7{fill:url(#SVGID_6_);}
	.st8{fill:url(#SVGID_7_);}
	.st9{fill:url(#SVGID_8_);}
	.st10{fill:#3CC8B4;}
	.st11{fill:url(#SVGID_9_);}
</style>
<linearGradient id="SVGID_1_" gradientUnits="userSpaceOnUse" x1="1.5" y1="30.5" x2="31" y2="30.5">
	<stop  offset="0" style="stop-color:#32D0E8"/>
	<stop  offset="1" style="stop-color:#042037"/>
</linearGradient>
<path class="st0" d="M31,57.8c-0.7,0.1-1.4,0.1-2.1,0.1c-15.2,0-27.4-12.3-27.4-27.4S13.7,3.1,28.9,3.1c0.7,0,1.4,0,2.1,0.1
	C16.8,4.2,5.7,16.1,5.7,30.5S16.8,56.7,31,57.8z"/>
<linearGradient id="SVGID_2_" gradientUnits="userSpaceOnUse" x1="5.7" y1="30.5" x2="56.3" y2="30.5">
	<stop  offset="0" style="stop-color:#32D0E8"/>
	<stop  offset="1" style="stop-color:#042037"/>
</linearGradient>
<path class="st1" d="M53.3,18.1c0,0,0-0.1-0.1-0.1c-0.8-1.6-1.8-3-2.8-4.4l-0.8,0.8l-0.2-0.2l-0.2,0.2l-2.7-2.6L45,10.3l1.1-1.1
	c-0.6-0.5-1.3-1-1.9-1.4c0,0,0,0,0,0c-0.3-0.2-0.6-0.4-0.9-0.6c-0.2-0.2-0.5-0.3-0.8-0.5c0,0,0,0,0,0c-3.4-2-7.3-3.2-11.5-3.5
	C16.8,4.2,5.7,16.1,5.7,30.5c0,14.4,11.1,26.3,25.3,27.3c14.1-1.1,25.3-12.9,25.3-27.3C56.3,26,55.2,21.8,53.3,18.1z M29,51.6
	c-11.6,0-21-9.4-21-21c0-11.6,9.4-21,21-21c5.5,0,10.5,2.1,14.3,5.6c0,0,0,0,0,0c0.1,0,0.1,0.1,0.2,0.1c0.3,0.3,0.6,0.6,0.9,0.9
	c0,0,0,0,0,0c0.1,0.1,0.2,0.2,0.3,0.3C48,20.4,50,25.3,50,30.6C50,42.2,40.6,51.6,29,51.6z"/>
<linearGradient id="SVGID_3_" gradientUnits="userSpaceOnUse" x1="41.6" y1="10.275" x2="51.35" y2="10.275">
	<stop  offset="0" style="stop-color:#32D0E8"/>
	<stop  offset="1" style="stop-color:#042037"/>
</linearGradient>
<path class="st2" d="M51.3,18.4c-0.3,0-0.7,0.1-1.1,0.1c-4.7,0-8.7-3.5-8.7-8.2s4-8.2,8.7-8.2c0.4,0,0.7,0,1.1,0.1
	c-4.2,0.5-7.6,3.8-7.6,8.1S47.1,17.8,51.3,18.4z"/>
<linearGradient id="SVGID_4_" gradientUnits="userSpaceOnUse" x1="10.1" y1="29.9" x2="29.8" y2="29.9">
	<stop  offset="0" style="stop-color:#32D0E8"/>
	<stop  offset="1" style="stop-color:#042037"/>
</linearGradient>
<path class="st3" d="M23.2,47.9h-1.8c-5.3-2.3-9.3-7-10.7-12.6c-0.4-1.5-0.6-3-0.6-4.6c0-10.4,8.4-18.8,18.8-18.8c0.3,0,0.6,0,0.9,0
	c-10,0.5-17.9,8.7-17.9,18.8c0,1.6,0.2,3.1,0.6,4.6C14,40.9,18,45.6,23.2,47.9z"/>
<ellipse class="st4" cx="29.9" cy="30.7" rx="17.9" ry="18.8"/>
<linearGradient id="SVGID_5_" gradientUnits="userSpaceOnUse" x1="11.9" y1="29.9" x2="47.7" y2="29.9">
	<stop  offset="0" style="stop-color:#32D0E8"/>
	<stop  offset="1" style="stop-color:#042037"/>
</linearGradient>
<path class="st5" d="M47.7,30.7c0,1.6-0.2,3.1-0.6,4.6c-1.4,5.6-5.4,10.3-10.6,12.6H23.2c-5.3-2.3-9.3-7-10.7-12.6
	c-0.4-1.5-0.6-3-0.6-4.6c0-10.1,7.9-18.3,17.9-18.8C39.8,12.4,47.7,20.6,47.7,30.7z"/>
<polygon class="st6" points="16.2,26.4 17,28 18.8,28.3 17.5,29.5 17.8,31.3 16.2,30.4 14.7,31.3 15,29.5 13.7,28.3 15.4,28 "/>
<polygon class="st6" points="21.3,20 22.3,22 24.5,22.3 22.9,23.8 23.3,26 21.3,25 19.4,26 19.7,23.8 18.2,22.3 20.3,22 "/>
<polygon class="st6" points="43.4,26.4 44.1,28 45.9,28.3 44.6,29.5 44.9,31.3 43.4,30.4 41.8,31.3 42.1,29.5 40.8,28.3 42.6,28 "/>
<polygon class="st6" points="39.5,19.8 40.5,21.8 42.7,22.1 41.1,23.7 41.5,25.8 39.5,24.8 37.5,25.8 37.9,23.7 36.3,22.1 
	38.5,21.8 "/>
<polygon class="st6" points="30.4,15 32,18.3 35.6,18.9 33,21.4 33.6,25.1 30.4,23.4 27.1,25.1 27.7,21.4 25.1,18.9 28.7,18.3 "/>
<linearGradient id="SVGID_6_" gradientUnits="userSpaceOnUse" x1="1.1" y1="45.4" x2="9.5" y2="45.4">
	<stop  offset="0" style="stop-color:#32D0E8"/>
	<stop  offset="1" style="stop-color:#042037"/>
</linearGradient>
<polygon class="st7" points="9.5,51.7 9.5,39.1 1.1,39.1 3.1,45.4 1.1,51.7 "/>
<linearGradient id="SVGID_7_" gradientUnits="userSpaceOnUse" x1="50.2" y1="45.4" x2="58.7" y2="45.4">
	<stop  offset="0" style="stop-color:#32D0E8"/>
	<stop  offset="1" style="stop-color:#042037"/>
</linearGradient>
<polygon class="st8" points="50.2,51.7 50.2,39.1 58.7,39.1 56.7,45.4 58.7,51.7 "/>
<linearGradient id="SVGID_8_" gradientUnits="userSpaceOnUse" x1="5.8" y1="41.6" x2="52.1" y2="41.6">
	<stop  offset="0" style="stop-color:#32D0E8"/>
	<stop  offset="1" style="stop-color:#042037"/>
</linearGradient>
<rect x="5.8" y="35.3" class="st9" width="46.3" height="12.6"/>
<polygon class="st6" points="12.4,39.4 14.3,37.4 16.5,37.4 16.5,43.7 18.6,43.7 18.6,45.8 12.2,45.8 12.2,43.7 14.3,43.7 
	14.3,39.5 12.2,39.5 "/>
<path class="st6" d="M29.1,37.4v8.4h6.3v-8.4H29.1z M33.3,43.7h-2.1v-4.2h2.1V43.7z"/>
<path class="st6" d="M20.7,37.4v8.4H27v-8.4H20.7z M24.9,43.7h-2.1v-4.2h2.1V43.7z"/>
<circle class="st6" cx="40.6" cy="38.4" r="1.1"/>
<circle class="st6" cx="44.8" cy="44.7" r="1.1"/>
<polygon class="st6" points="39.2,45.4 45.5,37 46.3,37.6 40.1,46.1 "/>
<path class="st10" d="M26.9,58.8"/>
<linearGradient id="SVGID_9_" gradientUnits="userSpaceOnUse" x1="42.7" y1="10.25" x2="58.9" y2="10.25">
	<stop  offset="0" style="stop-color:#32D0E8"/>
	<stop  offset="1" style="stop-color:#042037"/>
</linearGradient>
<path class="st11" d="M51.2,2.2c-0.1,0-0.2,0-0.4,0c-3.4,0-6.3,2.1-7.5,5.1c-0.4,0.9-0.6,2-0.6,3c0,4.5,3.6,8.1,8.1,8.1
	c0.2,0,0.3,0,0.5,0c0.7,0,1.3-0.2,2-0.4c3.3-1,5.7-4.1,5.7-7.7C58.9,5.9,55.5,2.4,51.2,2.2z M50.5,13.6l-0.8,0.8l-0.2-0.2l-4.1-3.9
	c0.2-0.2,2.2-2.2,2.2-2.2l2.1,2.2l4.2-4.3l2,2.1L50.5,13.6z"/>
</svg>
