<?xml version="1.0" encoding="utf-8"?>
<!-- Generator: Adobe Illustrator 24.3.0, SVG Export Plug-In . SVG Version: 6.00 Build 0)  -->
<svg version="1.1" id="Layer_1" xmlns="http://www.w3.org/2000/svg" xmlns:xlink="http://www.w3.org/1999/xlink" x="0px" y="0px"
	 viewBox="0 0 60 60" style="enable-background:new 0 0 60 60;" xml:space="preserve">
<style type="text/css">
	.st0{display:none;}
	.st1{display:inline;fill:#46AAD2;}
	.st2{display:inline;fill:#64C8F0;}
	.st3{display:inline;fill:#1EAA96;}
	.st4{display:inline;fill:#3CC8B4;}
	.st5{display:inline;fill:#DC9600;}
	.st6{display:inline;fill:none;}
	.st7{display:inline;fill:#FAB400;}
	.st8{display:inline;fill:#BE7800;}
	.st9{display:inline;fill:#DC4632;}
	.st10{display:inline;fill:#FA6450;}
	.st11{display:inline;fill:#FFFFFF;}
	.st12{fill:#3CC8B4;}
	.st13{fill:url(#SVGID_1_);}
	.st14{fill:none;stroke:url(#SVGID_2_);stroke-width:3;stroke-miterlimit:10;}
	.st15{fill:url(#SVGID_3_);}
	.st16{fill:#FFFFFF;}
	.st17{fill:none;stroke:#FFFFFF;stroke-width:2;stroke-miterlimit:10;}
	.st18{fill:url(#SVGID_4_);}
	.st19{fill:url(#SVGID_5_);}
	.st20{fill:url(#SVGID_6_);}
	.st21{fill:url(#SVGID_7_);}
	.st22{fill:url(#SVGID_8_);}
</style>
<g class="st0">
	<path class="st1" d="M31.3,57.9C30.6,58,29.9,58,29.2,58C14,58,1.8,45.7,1.8,30.6S14,3.2,29.2,3.2c0.7,0,1.4,0,2.1,0.1
		C17.1,4.3,6,16.2,6,30.6S17.1,56.8,31.3,57.9z"/>
	<path class="st2" d="M53.6,18.2c-0.9-1.7-1.9-3.3-3-4.7l-0.2,0.2l-0.8,0.8l-2.7-2.6l-1.6-1.5l1.1-1.1c-0.6-0.5-1.3-1-1.9-1.4l0,0
		c-0.6-0.4-1.1-0.7-1.7-1.1c-3.4-2-7.3-3.2-11.5-3.5C17.1,4.3,6,16.2,6,30.6s11.1,26.3,25.3,27.3C45.4,56.8,56.6,45,56.6,30.6
		C56.6,26.1,55.5,21.9,53.6,18.2z M29.3,51.7c-11.6,0-21-9.4-21-21s9.4-21,21-21c5.6,0,10.7,2.2,14.5,5.8c0.4,0.4,0.8,0.8,1.2,1.3
		c3.3,3.7,5.3,8.6,5.3,13.9C50.3,42.3,40.9,51.7,29.3,51.7z"/>
	<path class="st3" d="M51.5,18.8c-0.3,0-0.7,0.1-1.1,0.1c-4.7,0-8.5-3.8-8.5-8.5s3.8-8.5,8.5-8.5c0.4,0,0.7,0,1.1,0.1
		c-4.2,0.5-7.4,4.1-7.4,8.4S47.3,18.2,51.5,18.8z"/>
	<path class="st4" d="M51.5,1.9c-0.2,0-0.3,0-0.5,0.1c-0.1,0-0.2,0-0.3,0.1c-0.1,0-0.1,0-0.2,0c-0.1,0-0.1,0-0.2,0
		c-0.2,0.1-0.4,0.1-0.6,0.2c-0.1,0-0.1,0-0.2,0.1h-0.1c0,0-0.1,0-0.1,0.1c-0.1,0-0.1,0-0.2,0.1l0,0c-0.1,0-0.1,0-0.2,0.1
		c0,0-0.1,0-0.1,0.1c0,0-0.1,0-0.1,0.1c-0.1,0-0.2,0.1-0.3,0.2c0-0.1,0-0.1-0.1-0.1c-0.1,0-0.1,0.1-0.2,0.1c-0.1,0-0.1,0.1-0.2,0.1
		c-0.1,0.1-0.2,0.1-0.3,0.2c-0.4,0.3-0.8,0.7-1.2,1.1l-0.1,0.1l-0.1,0.1l-0.1,0.1C46,5,45.9,5.1,45.8,5.2l-0.1,0.1l-0.1,0.1
		l-0.1,0.1l-0.1,0.1c0,0-0.1,0.1-0.1,0.2c-0.2,0.3-0.4,0.6-0.5,1c0,0.1,0,0.1-0.1,0.2c-0.1,0.2-0.2,0.5-0.3,0.7c0,0,0,0,0,0.1v0.1V8
		c0,0.1,0,0.1-0.1,0.2v0.1l0,0c0,0.1,0,0.1,0,0.2c0,0.1,0,0.1,0,0.2v0.1c0,0.1,0,0.1,0,0.2c0,0.1,0,0.2,0,0.3s0,0.1,0,0.2
		c0,0.1,0,0.1,0,0.2c0,0.1,0,0.1,0,0.2c0,0.1,0,0.3,0,0.4c0,0.2,0,0.4,0,0.6l0,0c0,0.2,0,0.3,0.1,0.5v0.1c0,0.1,0,0.1,0,0.2
		c0,0.2,0.1,0.5,0.1,0.7c0,0.1,0,0.1,0,0.2l0,0c0,0.2,0.1,0.3,0.2,0.5c0,0.1,0,0.1,0.1,0.2c0,0.1,0,0.1,0.1,0.2c0,0.1,0,0.1,0.1,0.2
		c0,0.1,0,0.1,0.1,0.2c0,0.1,0,0.1,0.1,0.2c0,0.1,0.1,0.1,0.1,0.2c0,0.1,0.1,0.1,0.1,0.2c0.1,0.1,0.1,0.2,0.2,0.3
		c0.1,0.2,0.2,0.3,0.3,0.5c0.1,0.1,0.2,0.3,0.3,0.4l0.1,0.1l0.1,0.1l0.1,0.1l0.1,0.1l0.1,0.1c0.1,0.1,0.3,0.3,0.4,0.4l0.1,0.1
		c0.2,0.2,0.5,0.4,0.7,0.6c0.1,0.1,0.2,0.1,0.3,0.2s0.3,0.2,0.5,0.3c0.1,0,0.1,0.1,0.2,0.1c0.1,0,0.1,0.1,0.2,0.1
		c0.1,0.1,0.2,0.1,0.3,0.2c0.1,0,0.1,0,0.2,0.1l0,0c0.1,0,0.1,0,0.2,0.1c0.1,0,0.1,0,0.2,0.1c0.1,0,0.1,0.1,0.2,0.1h0.1
		c0.1,0,0.1,0,0.2,0.1l0,0c0.1,0,0.1,0,0.2,0l0,0h0.2c0.1,0,0.1,0,0.2,0c0.1,0,0.1,0,0.2,0c0.1,0,0.2,0,0.3,0.1c0,0,0,0,0.1,0
		s0.1,0,0.2,0c0.1,0,0.1,0,0.2,0c0.7-0.1,1.4-0.3,2.1-0.5c0.4-0.2,0.8-0.4,1.2-0.6c1.9-1.1,3.3-3,3.8-5.2c0.2-0.7,0.3-1.4,0.3-2.1
		C58.9,6,55.7,2.4,51.5,1.9z M54.9,9.1l-4.3,4.3l-0.2,0.2l-0.8,0.8l-2.7-2.6l-1.6-1.5l1.1-1.1l1.1-1.1l2.1,2.2l2.8-2.8L53.8,6l2,2.1
		L54.9,9.1z"/>
	<path class="st5" d="M23.5,48h-1.8c-5.3-2.3-9.3-7-10.7-12.6c-0.4-1.5-0.6-3-0.6-4.6c0-10.4,8.4-18.8,18.8-18.8c0.3,0,0.6,0,0.9,0
		c-10,0.5-17.9,8.7-17.9,18.8c0,1.6,0.2,3.1,0.6,4.6C14.3,41,18.3,45.7,23.5,48z"/>
	<ellipse class="st6" cx="30.2" cy="30.8" rx="17.9" ry="18.8"/>
	<path class="st7" d="M48,30.8c0,1.6-0.2,3.1-0.6,4.6C46,41,42,45.7,36.8,48H23.5c-5.3-2.3-9.3-7-10.7-12.6c-0.4-1.5-0.6-3-0.6-4.6
		c0-10.1,7.9-18.3,17.9-18.8C40.1,12.5,48,20.7,48,30.8z"/>
	<polygon class="st8" points="16.5,26.5 17.3,28.1 19.1,28.4 17.8,29.6 18.1,31.4 16.5,30.5 15,31.4 15.3,29.6 14,28.4 15.7,28.1 	
		"/>
	<polygon class="st8" points="21.6,20.1 22.6,22.1 24.8,22.4 23.2,23.9 23.6,26.1 21.6,25.1 19.7,26.1 20,23.9 18.5,22.4 20.6,22.1 
			"/>
	<polygon class="st8" points="43.7,26.5 44.4,28.1 46.2,28.4 44.9,29.6 45.2,31.4 43.7,30.5 42.1,31.4 42.4,29.6 41.1,28.4 
		42.9,28.1 	"/>
	<polygon class="st8" points="39.8,19.9 40.8,21.9 43,22.2 41.4,23.8 41.8,25.9 39.8,24.9 37.8,25.9 38.2,23.8 36.6,22.2 38.8,21.9 
			"/>
	<polygon class="st8" points="30.7,15.1 32.3,18.4 35.9,19 33.3,21.5 33.9,25.2 30.7,23.5 27.4,25.2 28,21.5 25.4,19 29,18.4 	"/>
	<polygon class="st9" points="9.8,51.8 9.8,39.2 1.4,39.2 3.4,45.5 1.4,51.8 	"/>
	<polygon class="st9" points="50.5,51.8 50.5,39.2 59,39.2 57,45.5 59,51.8 	"/>
	<rect x="6.1" y="35.4" class="st10" width="46.3" height="12.6"/>
	<polygon class="st11" points="12.7,39.5 14.6,37.5 16.8,37.5 16.8,43.8 18.9,43.8 18.9,45.9 12.5,45.9 12.5,43.8 14.6,43.8 
		14.6,39.6 12.5,39.6 	"/>
	<path class="st11" d="M29.4,37.5v8.4h6.3v-8.4H29.4z M33.6,43.8h-2.1v-4.2h2.1V43.8z"/>
	<path class="st11" d="M21,37.5v8.4h6.3v-8.4H21z M25.2,43.8h-2.1v-4.2h2.1V43.8z"/>
	<circle class="st11" cx="40.9" cy="38.5" r="1.1"/>
	<circle class="st11" cx="45.1" cy="44.8" r="1.1"/>
	<polygon class="st11" points="39.5,45.5 45.8,37.1 46.6,37.7 40.4,46.2 	"/>
</g>
<path class="st12" d="M26.9,58.8"/>
<linearGradient id="SVGID_1_" gradientUnits="userSpaceOnUse" x1="0.75" y1="17.8" x2="32.25" y2="17.8">
	<stop  offset="0" style="stop-color:#32D0E8"/>
	<stop  offset="1" style="stop-color:#042037"/>
</linearGradient>
<path class="st13" d="M5.1,9.9L3.8,8.3l3.2-3.2l1.7,1.1c0,0,3.7-1.9,5.1-1.9L14.4,2h4.3l0.5,2.3c0,0,3.4,0.6,4.9,2l2.1-1.2l3.1,3.2
	l-1.4,1.9c0,0,1.3,1.2,2.1,4.8l2.3,0.6v0.9l-4,0.4c0,0,0.1-5.9-6-9.4S10.1,7.9,10.1,7.9s-6.5,3.8-5.1,12s9.9,9.4,9.9,9.4
	s5.1,1,9.4-2.8v2.7c0,0-2.6,1.5-5,2l-0.5,2.3h-4.5l-0.6-2.3c0,0-2.9-0.6-4.9-2l-1.9,1.3l-3.2-3.2l1.3-2c0,0-1.5-2.3-2-4.9l-2.2-0.5
	v-4.3L3.1,15C3.1,15,3.8,11.8,5.1,9.9z"/>
<linearGradient id="SVGID_2_" gradientUnits="userSpaceOnUse" x1="7.25" y1="17.85" x2="25.85" y2="17.85">
	<stop  offset="0" style="stop-color:#32D0E8"/>
	<stop  offset="1" style="stop-color:#042037"/>
</linearGradient>
<circle class="st14" cx="16.5" cy="17.8" r="7.8"/>
<linearGradient id="SVGID_3_" gradientUnits="userSpaceOnUse" x1="24.35" y1="32.2995" x2="59.25" y2="32.2995">
	<stop  offset="0" style="stop-color:#32D0E8"/>
	<stop  offset="1" style="stop-color:#042037"/>
</linearGradient>
<path class="st15" d="M24.4,16.2v13c0,1.6,0.2,3.2,0.7,4.7c1.5,5,5.8,15.3,16.7,18.7c0,0,16.2-4.2,17-22.6l0.5-13.8
	c0,0-13,1-17.5-4.3C41.8,11.8,32.5,18.8,24.4,16.2z"/>
<path class="st16" d="M30.8,22v8.3c0,1,0.1,2,0.4,3c0.9,3.2,3.7,9.7,10.6,11.9c0,0,10.3-2.6,10.8-14.4l0.3-8.8c0,0-8.3,0.6-11.1-2.8
	C41.8,19.2,35.8,23.6,30.8,22z"/>
<path class="st17" d="M27.2,19.2v10.4c0,1.3,0.2,2.7,0.6,3.9c1.2,4.2,4.8,12.7,13.9,15.5c0,0,13.4-3.5,14.1-18.8l0.4-11.3
	c0,0-10.8,0.8-14.5-3.6C41.8,15.2,34,21.4,27.2,19.2z"/>
<linearGradient id="SVGID_4_" gradientUnits="userSpaceOnUse" x1="33.35" y1="31.3" x2="51.55" y2="31.3">
	<stop  offset="0" style="stop-color:#32D0E8"/>
	<stop  offset="1" style="stop-color:#042037"/>
</linearGradient>
<polygon class="st18" points="33.3,33.1 37.8,28.8 39.8,30.9 47.5,23.1 51.5,27.1 39.8,39.5 "/>
<polygon class="st16" points="36,33 37.7,31.6 39.5,33.5 47.2,25.8 48.8,27.4 39.5,36.6 "/>
<linearGradient id="SVGID_5_" gradientUnits="userSpaceOnUse" x1="32.25" y1="26.3" x2="36.55" y2="26.3">
	<stop  offset="0" style="stop-color:#32D0E8"/>
	<stop  offset="1" style="stop-color:#042037"/>
</linearGradient>
<polygon class="st19" points="32.2,29 32.2,24 36,23.5 36.5,25.3 34.3,25.8 34.3,29 "/>
<linearGradient id="SVGID_6_" gradientUnits="userSpaceOnUse" x1="37.85" y1="23.5" x2="40.55" y2="23.5">
	<stop  offset="0" style="stop-color:#32D0E8"/>
	<stop  offset="1" style="stop-color:#042037"/>
</linearGradient>
<polygon class="st20" points="37.8,23 38.5,24.8 40.5,24 39.8,22.1 "/>
<linearGradient id="SVGID_7_" gradientUnits="userSpaceOnUse" x1="28.55" y1="52.7" x2="35.75" y2="52.7">
	<stop  offset="0" style="stop-color:#32D0E8"/>
	<stop  offset="1" style="stop-color:#042037"/>
</linearGradient>
<path class="st21" d="M30.5,47.5l-2,7.5l2.9-0.9l2.2,3.9l2.1-6.1C35.8,51.8,30.9,48.1,30.5,47.5z"/>
<linearGradient id="SVGID_8_" gradientUnits="userSpaceOnUse" x1="47.85" y1="52.7" x2="55.25" y2="52.7">
	<stop  offset="0" style="stop-color:#32D0E8"/>
	<stop  offset="1" style="stop-color:#042037"/>
</linearGradient>
<path class="st22" d="M49.8,58l-2-6.2c0,0,5.3-3.8,5.3-4.3l2.1,7.5l-3.1-0.7L49.8,58z"/>
</svg>
