<?xml version="1.0" encoding="utf-8"?>
<!-- Generator: Adobe Illustrator 24.3.0, SVG Export Plug-In . SVG Version: 6.00 Build 0)  -->
<svg version="1.1" id="Layer_1" xmlns="http://www.w3.org/2000/svg" xmlns:xlink="http://www.w3.org/1999/xlink" x="0px" y="0px"
	 viewBox="0 0 65 65" style="enable-background:new 0 0 65 65;" xml:space="preserve">
<style type="text/css">
	.st0{fill:#EBF7FB;}
	.st1{fill:#ED2224;}
	.st2{fill:#010101;}
	.st3{fill:#F9BD15;}
	.st4{fill:#FCD82C;}
</style>
<circle class="st0" cx="32.5" cy="32.5" r="32.5"/>
<g>
	<path class="st1" d="M51.43,51.92h-1.12c0.3-0.2,0.51-0.51,0.61-0.91h-3.96c0.1,0.3,0.3,0.61,0.61,0.91H35.7
		c0.1-0.2,0.2-0.41,0.2-0.61l0,0c0-0.61-0.51-1.12-1.01-1.12c-1.42-1.42-2.03-2.84-1.72-4.26h-7.61c0.3,1.42-0.3,2.84-1.72,4.26
		c-0.61,0-1.01,0.51-1.01,1.12l0,0c0,0.2,0.1,0.41,0.2,0.61H8.82c-0.3,0-0.51,0.2-0.51,0.51c0,0.3,0.2,0.51,0.51,0.51h42.61
		c0.3,0,0.51-0.2,0.51-0.51C51.83,52.23,51.63,51.92,51.43,51.92z"/>
	<path class="st1" d="M56.5,51.92h-2.54c-0.3,0-0.51,0.2-0.51,0.51c0,0.3,0.2,0.51,0.51,0.51h2.54c0.3,0,0.51-0.2,0.51-0.51
		C57,52.23,56.8,51.92,56.5,51.92z"/>
	<path class="st1" d="M12.07,44.92h33.27c-0.2-1.42-0.81-2.84-1.72-4.06c-0.3-0.3-0.51-0.61-0.71-1.01H9.84v2.74
		C9.84,43.91,10.85,44.92,12.07,44.92z M29.31,41.17c0.71,0,1.22,0.51,1.22,1.22c0,0.71-0.51,1.22-1.22,1.22s-1.22-0.51-1.22-1.22
		C28.09,41.78,28.6,41.17,29.31,41.17z"/>
	<path class="st2" d="M41.89,37.21H16.02c-0.3,0-0.51-0.2-0.51-0.51v-4.36c0-0.3,0.2-0.51,0.51-0.51H42.7c0.3,0,0.51,0.2,0.51,0.51
		l0,0c1.22-1.72,3.25-2.94,5.58-2.94V17.33c0-0.91-0.71-1.72-1.72-1.72h-35.5c-0.91,0-1.72,0.71-1.72,1.72v21.61H42.4
		C42.09,38.33,41.99,37.72,41.89,37.21z M33.06,28.9c0,0.3-0.2,0.51-0.51,0.51h-6.7c-0.3,0-0.51-0.2-0.51-0.51v-5.78
		c0-0.3,0.2-0.51,0.51-0.51h6.8c0.3,0,0.51,0.2,0.51,0.51C33.06,23.11,33.06,28.9,33.06,28.9z M43.41,23.11v5.78
		c0,0.3-0.2,0.51-0.51,0.51h-6.7c-0.3,0-0.51-0.2-0.51-0.51v-5.78c0-0.3,0.2-0.51,0.51-0.51h6.7
		C43.21,22.61,43.41,22.91,43.41,23.11z M39.15,18.35c0-0.1,0.1-0.2,0.2-0.2h2.94c0.1,0,0.2,0.1,0.2,0.2v1.12c0,0.1-0.1,0.2-0.2,0.2
		h-2.94c-0.1,0-0.2-0.1-0.2-0.2V18.35z M34.49,18.35c0-0.1,0.1-0.2,0.2-0.2h2.94c0.1,0,0.2,0.1,0.2,0.2v1.12c0,0.1-0.1,0.2-0.2,0.2
		h-2.94c-0.1,0-0.2-0.1-0.2-0.2V18.35z M29.92,18.35c0-0.1,0.1-0.2,0.2-0.2h2.94c0.1,0,0.2,0.1,0.2,0.2v1.12c0,0.1-0.1,0.2-0.2,0.2
		h-2.94c-0.1,0-0.2-0.1-0.2-0.2V18.35z M25.25,18.35c0-0.1,0.1-0.2,0.2-0.2h2.94c0.1,0,0.2,0.1,0.2,0.2v1.12c0,0.1-0.1,0.2-0.2,0.2
		h-2.94c-0.1,0-0.2-0.1-0.2-0.2V18.35z M20.59,18.35c0-0.1,0.1-0.2,0.2-0.2h2.94c0.1,0,0.2,0.1,0.2,0.2v1.12c0,0.1-0.1,0.2-0.2,0.2
		h-2.94c-0.1,0-0.2-0.1-0.2-0.2V18.35z M15.92,18.35c0-0.1,0.1-0.2,0.2-0.2h2.94c0.1,0,0.2,0.1,0.2,0.2v1.12c0,0.1-0.1,0.2-0.2,0.2
		h-2.94c-0.1,0-0.2-0.1-0.2-0.2L15.92,18.35z M15.01,28.9v-5.78c0-0.3,0.2-0.51,0.51-0.51h6.7c0.3,0,0.51,0.2,0.51,0.51v5.78
		c0,0.3-0.2,0.51-0.51,0.51h-6.7C15.31,29.4,15.01,29.2,15.01,28.9z"/>
	<path class="st3" d="M42.9,36.4c0,1.42,0.51,2.74,1.42,3.85c1.22,1.52,1.93,3.35,2.03,5.17h2.43v-6.8l-0.91,0.61
		c-0.2,0.1-0.41,0.1-0.51,0l-1.52-1.01c-0.2-0.1-0.3-0.41-0.1-0.61c0.1-0.2,0.41-0.3,0.61-0.1l1.32,0.91l1.32-0.91l0,0l0,0
		c0.1,0,0.1,0,0.2,0l0,0l0,0c0.1,0,0.1,0,0.2,0l0,0l0,0l1.32,0.91l1.32-0.91c0.2-0.1,0.51-0.1,0.61,0.1c0.1,0.2,0.1,0.51-0.1,0.61
		l-1.62,1.01c-0.2,0.1-0.41,0.1-0.51,0l-0.81-0.61v6.8h2.33v-0.41c0-1.83,0.61-3.55,1.72-5.07c0.81-1.12,1.22-2.33,1.12-3.65
		c-0.1-3.25-2.74-5.88-5.88-5.88C45.64,30.32,42.9,33.05,42.9,36.4z"/>
	<path class="st4" d="M52.24,48.78h-6.29c-0.41,0-0.61,0.3-0.61,0.61S45.64,50,45.95,50h6.29c0.41,0,0.61-0.3,0.61-0.61
		C52.85,49.08,52.54,48.78,52.24,48.78z"/>
	<path class="st4" d="M52.24,46.45h-6.29c-0.41,0-0.61,0.3-0.61,0.61c0,0.41,0.3,0.61,0.61,0.61h6.29c0.41,0,0.61-0.3,0.61-0.61
		C52.85,46.75,52.54,46.45,52.24,46.45z"/>
	<g>
		<g>
			<path class="st4" d="M59.24,31.53l-2.43,1.12c-0.3,0.1-0.51,0.51-0.3,0.91c0.1,0.3,0.51,0.51,0.91,0.3l2.43-1.12
				c0.3-0.1,0.51-0.51,0.3-0.91C59.95,31.53,59.54,31.33,59.24,31.53z"/>
		</g>
	</g>
	<g>
		<g>
			<path class="st4" d="M60.25,36.81l-2.74-0.1c-0.41,0-0.71,0.3-0.71,0.61c0,0.41,0.3,0.71,0.61,0.71l2.74,0.1
				c0.41,0,0.71-0.3,0.71-0.61C60.96,37.11,60.66,36.81,60.25,36.81z"/>
		</g>
	</g>
	<g>
		<g>
			<path class="st4" d="M55.58,27.48l-1.72,2.03c-0.2,0.3-0.2,0.71,0.1,0.91s0.71,0.2,0.91-0.1l1.72-2.03c0.2-0.3,0.2-0.71-0.1-0.91
				C56.19,27.17,55.79,27.17,55.58,27.48z"/>
		</g>
	</g>
	<g>
		<g>
			<path class="st4" d="M50.51,25.55l-0.1,2.74c0,0.41,0.3,0.71,0.61,0.71c0.41,0,0.71-0.3,0.71-0.61l0.1-2.74
				c0-0.41-0.3-0.71-0.61-0.71C50.82,24.94,50.51,25.24,50.51,25.55z"/>
		</g>
	</g>
</g>
</svg>
