<?xml version="1.0" encoding="utf-8"?>
<!-- Generator: Adobe Illustrator 24.3.0, SVG Export Plug-In . SVG Version: 6.00 Build 0)  -->
<svg version="1.1" id="Layer_1" xmlns="http://www.w3.org/2000/svg" xmlns:xlink="http://www.w3.org/1999/xlink" x="0px" y="0px"
	 viewBox="0 0 65 65" style="enable-background:new 0 0 65 65;" xml:space="preserve">
<style type="text/css">
	.st0{fill:#EBF7FB;}
	.st1{display:none;}
	.st2{display:inline;fill:#ED2224;}
	.st3{display:inline;fill:#010101;}
	.st4{display:inline;fill:#F9BD15;}
	.st5{display:inline;fill:#FCD82C;}
	.st6{display:inline;}
	.st7{fill:#FCD82C;}
	.st8{display:inline;fill:#4187C7;stroke:#010101;stroke-width:0.5;stroke-miterlimit:10;}
	.st9{display:inline;fill:#1F78BD;stroke:#010101;stroke-width:0.5;stroke-miterlimit:10;}
	.st10{display:inline;fill:#E0F3FB;stroke:#010101;stroke-width:0.5;stroke-miterlimit:10;}
	.st11{display:inline;fill:#C9EBFA;stroke:#010101;stroke-width:0.5;stroke-miterlimit:10;}
	.st12{display:inline;fill:#8D9CA8;stroke:#010101;stroke-width:0.25;stroke-miterlimit:10;}
	.st13{fill:#FEE178;stroke:#010101;stroke-width:0.5;stroke-miterlimit:10;}
	.st14{fill:#FFD15C;stroke:#010101;stroke-width:0.5;stroke-miterlimit:10;}
	.st15{fill:#FEC446;stroke:#010101;stroke-width:0.5;stroke-miterlimit:10;}
	.st16{fill:#A0ADBB;stroke:#010101;stroke-width:0.5;stroke-miterlimit:10;}
	.st17{fill:#8D9CA8;stroke:#010101;stroke-width:0.5;stroke-miterlimit:10;}
	
		.st18{fill:none;stroke:#010101;stroke-width:0.5;stroke-linecap:round;stroke-linejoin:round;stroke-miterlimit:10;stroke-dasharray:2,1;}
	.st19{fill:none;stroke:#010101;stroke-width:0.5;stroke-miterlimit:10;}
	.st20{display:inline;fill:none;stroke:#010101;stroke-width:0.5;stroke-miterlimit:10;}
	.st21{display:inline;fill:none;stroke:#010101;stroke-width:9;stroke-miterlimit:10;}
	.st22{display:inline;fill:none;stroke:#010101;stroke-width:0.25;stroke-miterlimit:10;}
	.st23{font-family:'MyriadPro-Bold';}
	.st24{font-size:6.6718px;}
	.st25{fill:#F4AF9E;}
	.st26{fill:#3D495B;}
	.st27{fill:#526075;}
	.st28{fill:#F3F3F3;}
	.st29{fill:#EF4A67;}
	.st30{fill:#E6E6E5;}
	.st31{fill:#F9C3B0;}
	.st32{fill:#EA9E8F;}
	.st33{fill:#2A3544;}
	.st34{fill:#E16E86;}
	.st35{fill:#E9AE21;}
	.st36{fill:#FFC72B;}
	.st37{fill:#FFFFFF;}
</style>
<circle class="st0" cx="32.5" cy="32.5" r="32.5"/>
<g class="st1">
	<path class="st2" d="M51.43,51.92h-1.12c0.3-0.2,0.51-0.51,0.61-0.91h-3.96c0.1,0.3,0.3,0.61,0.61,0.91H35.7
		c0.1-0.2,0.2-0.41,0.2-0.61l0,0c0-0.61-0.51-1.12-1.01-1.12c-1.42-1.42-2.03-2.84-1.72-4.26h-7.61c0.3,1.42-0.3,2.84-1.72,4.26
		c-0.61,0-1.01,0.51-1.01,1.12l0,0c0,0.2,0.1,0.41,0.2,0.61H8.82c-0.3,0-0.51,0.2-0.51,0.51c0,0.3,0.2,0.51,0.51,0.51h42.61
		c0.3,0,0.51-0.2,0.51-0.51C51.83,52.23,51.63,51.92,51.43,51.92z"/>
	<path class="st2" d="M56.5,51.92h-2.54c-0.3,0-0.51,0.2-0.51,0.51c0,0.3,0.2,0.51,0.51,0.51h2.54c0.3,0,0.51-0.2,0.51-0.51
		C57,52.23,56.8,51.92,56.5,51.92z"/>
	<path class="st2" d="M12.07,44.92h33.27c-0.2-1.42-0.81-2.84-1.72-4.06c-0.3-0.3-0.51-0.61-0.71-1.01H9.84v2.74
		C9.84,43.91,10.85,44.92,12.07,44.92z M29.31,41.17c0.71,0,1.22,0.51,1.22,1.22c0,0.71-0.51,1.22-1.22,1.22s-1.22-0.51-1.22-1.22
		C28.09,41.78,28.6,41.17,29.31,41.17z"/>
	<path class="st3" d="M41.89,37.21H16.02c-0.3,0-0.51-0.2-0.51-0.51v-4.36c0-0.3,0.2-0.51,0.51-0.51H42.7c0.3,0,0.51,0.2,0.51,0.51
		l0,0c1.22-1.72,3.25-2.94,5.58-2.94V17.33c0-0.91-0.71-1.72-1.72-1.72h-35.5c-0.91,0-1.72,0.71-1.72,1.72v21.61H42.4
		C42.09,38.33,41.99,37.72,41.89,37.21z M33.06,28.9c0,0.3-0.2,0.51-0.51,0.51h-6.7c-0.3,0-0.51-0.2-0.51-0.51v-5.78
		c0-0.3,0.2-0.51,0.51-0.51h6.8c0.3,0,0.51,0.2,0.51,0.51C33.06,23.11,33.06,28.9,33.06,28.9z M43.41,23.11v5.78
		c0,0.3-0.2,0.51-0.51,0.51h-6.7c-0.3,0-0.51-0.2-0.51-0.51v-5.78c0-0.3,0.2-0.51,0.51-0.51h6.7
		C43.21,22.61,43.41,22.91,43.41,23.11z M39.15,18.35c0-0.1,0.1-0.2,0.2-0.2h2.94c0.1,0,0.2,0.1,0.2,0.2v1.12c0,0.1-0.1,0.2-0.2,0.2
		h-2.94c-0.1,0-0.2-0.1-0.2-0.2V18.35z M34.49,18.35c0-0.1,0.1-0.2,0.2-0.2h2.94c0.1,0,0.2,0.1,0.2,0.2v1.12c0,0.1-0.1,0.2-0.2,0.2
		h-2.94c-0.1,0-0.2-0.1-0.2-0.2V18.35z M29.92,18.35c0-0.1,0.1-0.2,0.2-0.2h2.94c0.1,0,0.2,0.1,0.2,0.2v1.12c0,0.1-0.1,0.2-0.2,0.2
		h-2.94c-0.1,0-0.2-0.1-0.2-0.2V18.35z M25.25,18.35c0-0.1,0.1-0.2,0.2-0.2h2.94c0.1,0,0.2,0.1,0.2,0.2v1.12c0,0.1-0.1,0.2-0.2,0.2
		h-2.94c-0.1,0-0.2-0.1-0.2-0.2V18.35z M20.59,18.35c0-0.1,0.1-0.2,0.2-0.2h2.94c0.1,0,0.2,0.1,0.2,0.2v1.12c0,0.1-0.1,0.2-0.2,0.2
		h-2.94c-0.1,0-0.2-0.1-0.2-0.2V18.35z M15.92,18.35c0-0.1,0.1-0.2,0.2-0.2h2.94c0.1,0,0.2,0.1,0.2,0.2v1.12c0,0.1-0.1,0.2-0.2,0.2
		h-2.94c-0.1,0-0.2-0.1-0.2-0.2L15.92,18.35z M15.01,28.9v-5.78c0-0.3,0.2-0.51,0.51-0.51h6.7c0.3,0,0.51,0.2,0.51,0.51v5.78
		c0,0.3-0.2,0.51-0.51,0.51h-6.7C15.31,29.4,15.01,29.2,15.01,28.9z"/>
	<path class="st4" d="M42.9,36.4c0,1.42,0.51,2.74,1.42,3.85c1.22,1.52,1.93,3.35,2.03,5.17h2.43v-6.8l-0.91,0.61
		c-0.2,0.1-0.41,0.1-0.51,0l-1.52-1.01c-0.2-0.1-0.3-0.41-0.1-0.61c0.1-0.2,0.41-0.3,0.61-0.1l1.32,0.91l1.32-0.91l0,0l0,0
		c0.1,0,0.1,0,0.2,0l0,0l0,0c0.1,0,0.1,0,0.2,0l0,0l0,0l1.32,0.91l1.32-0.91c0.2-0.1,0.51-0.1,0.61,0.1c0.1,0.2,0.1,0.51-0.1,0.61
		l-1.62,1.01c-0.2,0.1-0.41,0.1-0.51,0l-0.81-0.61v6.8h2.33v-0.41c0-1.83,0.61-3.55,1.72-5.07c0.81-1.12,1.22-2.33,1.12-3.65
		c-0.1-3.25-2.74-5.88-5.88-5.88C45.64,30.32,42.9,33.05,42.9,36.4z"/>
	<path class="st5" d="M52.24,48.78h-6.29c-0.41,0-0.61,0.3-0.61,0.61S45.64,50,45.95,50h6.29c0.41,0,0.61-0.3,0.61-0.61
		C52.85,49.08,52.54,48.78,52.24,48.78z"/>
	<path class="st5" d="M52.24,46.45h-6.29c-0.41,0-0.61,0.3-0.61,0.61c0,0.41,0.3,0.61,0.61,0.61h6.29c0.41,0,0.61-0.3,0.61-0.61
		C52.85,46.75,52.54,46.45,52.24,46.45z"/>
	<g class="st6">
		<g>
			<path class="st7" d="M59.24,31.53l-2.43,1.12c-0.3,0.1-0.51,0.51-0.3,0.91c0.1,0.3,0.51,0.51,0.91,0.3l2.43-1.12
				c0.3-0.1,0.51-0.51,0.3-0.91C59.95,31.53,59.54,31.33,59.24,31.53z"/>
		</g>
	</g>
	<g class="st6">
		<g>
			<path class="st7" d="M60.25,36.81l-2.74-0.1c-0.41,0-0.71,0.3-0.71,0.61c0,0.41,0.3,0.71,0.61,0.71l2.74,0.1
				c0.41,0,0.71-0.3,0.71-0.61C60.96,37.11,60.66,36.81,60.25,36.81z"/>
		</g>
	</g>
	<g class="st6">
		<g>
			<path class="st7" d="M55.58,27.48l-1.72,2.03c-0.2,0.3-0.2,0.71,0.1,0.91s0.71,0.2,0.91-0.1l1.72-2.03c0.2-0.3,0.2-0.71-0.1-0.91
				C56.19,27.17,55.79,27.17,55.58,27.48z"/>
		</g>
	</g>
	<g class="st6">
		<g>
			<path class="st7" d="M50.51,25.55l-0.1,2.74c0,0.41,0.3,0.71,0.61,0.71c0.41,0,0.71-0.3,0.71-0.61l0.1-2.74
				c0-0.41-0.3-0.71-0.61-0.71C50.82,24.94,50.51,25.24,50.51,25.55z"/>
		</g>
	</g>
</g>
<g class="st1">
	<path class="st8" d="M54.49,18.03H11.9V13.7c0-0.67,0.54-1.21,1.21-1.21h40.16c0.67,0,1.21,0.54,1.21,1.21L54.49,18.03L54.49,18.03
		z"/>
	<path class="st9" d="M53.28,12.49h-3.12c0.67,0,1.21,0.54,1.21,1.21v4.33h3.12V13.7C54.49,13.03,53.94,12.49,53.28,12.49z"/>
	<path class="st10" d="M53.28,47.46H13.11c-0.67,0-1.21-0.54-1.21-1.21V18.03h42.59v28.22C54.49,46.92,53.94,47.46,53.28,47.46z"/>
	<path class="st11" d="M51.37,18.03v28.22c0,0.67-0.54,1.21-1.21,1.21h3.12c0.67,0,1.21-0.54,1.21-1.21V18.03H51.37z"/>
	<path class="st12" d="M51.2,24.26h-2.42c-0.29,0-0.52-0.23-0.52-0.52v-2.42c0-0.29,0.23-0.52,0.52-0.52h2.42
		c0.29,0,0.52,0.23,0.52,0.52v2.42C51.72,24.03,51.48,24.26,51.2,24.26z"/>
	<path class="st12" d="M17.61,24.26h-2.42c-0.29,0-0.52-0.23-0.52-0.52v-2.42c0-0.29,0.23-0.52,0.52-0.52h2.42
		c0.29,0,0.52,0.23,0.52,0.52v2.42C18.13,24.03,17.9,24.26,17.61,24.26z"/>
	<path class="st12" d="M51.2,37.94h-2.42c-0.29,0-0.52-0.23-0.52-0.52V35c0-0.29,0.23-0.52,0.52-0.52h2.42
		c0.29,0,0.52,0.23,0.52,0.52v2.42C51.72,37.71,51.48,37.94,51.2,37.94z"/>
	<path class="st12" d="M17.61,37.94h-2.42c-0.29,0-0.52-0.23-0.52-0.52V35c0-0.29,0.23-0.52,0.52-0.52h2.42
		c0.29,0,0.52,0.23,0.52,0.52v2.42C18.13,37.71,17.9,37.94,17.61,37.94z"/>
	<g class="st6">
		<path class="st13" d="M46.84,41.36l-7.87-2.99c-0.34-0.13-0.73-0.05-0.99,0.21c-0.26,0.26-0.34,0.64-0.21,0.99l2.99,7.87
			c0.18,0.47,0.64,0.79,1.15,0.78l3.51-0.04l2.16-2.16l0.04-3.51C47.63,42,47.32,41.54,46.84,41.36z M44.35,44.94
			c-0.54,0.54-1.42,0.54-1.96,0c-0.54-0.54-0.54-1.42,0-1.96c0.54-0.54,1.42-0.54,1.96,0C44.89,43.52,44.89,44.4,44.35,44.94z"/>
		<path class="st14" d="M46.84,41.36l-3.59-1.37c0.22,0.83,0.4,1.71,0.52,2.64c0.21,0.06,0.41,0.18,0.58,0.35
			c0.54,0.54,0.54,1.42,0,1.96c-0.12,0.12-0.25,0.21-0.39,0.27c0,0.14,0,0.28,0,0.43c0,0.87-0.05,1.73-0.14,2.55l1.6-0.02l2.16-2.16
			l0.04-3.51C47.63,42,47.32,41.54,46.84,41.36z"/>
		<path class="st15" d="M45.3,48.3l2.4-2.4c0.27-0.27,0.71-0.27,0.98,0l0.86,0.86c0.27,0.27,0.27,0.71,0,0.98l-2.4,2.4
			c-0.27,0.27-0.71,0.27-0.98,0l-0.86-0.86C45.03,49,45.03,48.57,45.3,48.3z"/>
		<polygon class="st16" points="49.54,47.73 47.14,50.13 49.88,55.08 54.49,55.08 54.49,50.47 		"/>
		<polygon class="st17" points="54.49,52.61 54.49,50.47 49.54,47.73 48.17,49.11 		"/>
	</g>
	<g class="st6">
		<g>
			<line class="st18" x1="49.99" y1="34.48" x2="49.99" y2="33.96"/>
			<line class="st18" x1="49.99" y1="31.51" x2="49.99" y2="26"/>
			<line class="st18" x1="49.99" y1="24.78" x2="49.99" y2="24.26"/>
		</g>
	</g>
	<g class="st6">
		<g>
			<line class="st18" x1="16.4" y1="34.48" x2="16.4" y2="33.96"/>
			<line class="st18" x1="16.4" y1="31.51" x2="16.4" y2="26"/>
			<line class="st18" x1="16.4" y1="24.78" x2="16.4" y2="24.26"/>
		</g>
	</g>
	<g class="st6">
		<g>
			<line class="st19" x1="48.26" y1="36.21" x2="47.74" y2="36.21"/>
			<line class="st18" x1="45" y1="36.21" x2="20.02" y2="36.21"/>
			<line class="st19" x1="18.65" y1="36.21" x2="18.13" y2="36.21"/>
		</g>
	</g>
	<g class="st6">
		<g>
			<line class="st18" x1="48.26" y1="22.53" x2="47.74" y2="22.53"/>
			<line class="st18" x1="45" y1="22.53" x2="20.02" y2="22.53"/>
			<line class="st18" x1="18.65" y1="22.53" x2="18.13" y2="22.53"/>
		</g>
	</g>
	<path class="st20" d="M25.13,12.49h28.14c0.67,0,1.21,0.54,1.21,1.21v11.4"/>
	<path class="st20" d="M11.9,38.8V13.7c0-0.67,0.54-1.21,1.21-1.21h9.02"/>
	<path class="st20" d="M11.9,41.8v4.45c0,0.67,0.54,1.21,1.21,1.21h27.57"/>
	<path class="st20" d="M54.49,28.1v18.15c0,0.67-0.54,1.21-1.21,1.21h-3.48"/>
	<line class="st20" x1="11.9" y1="18.03" x2="54.49" y2="18.03"/>
	<line class="st21" x1="15.02" y1="15.26" x2="15.02" y2="15.26"/>
	<line class="st22" x1="17.96" y1="15.26" x2="17.96" y2="15.26"/>
	<line class="st22" x1="20.9" y1="15.26" x2="20.9" y2="15.26"/>
	<path class="st20" d="M51.2,24.26h-2.42c-0.29,0-0.52-0.23-0.52-0.52v-2.42c0-0.29,0.23-0.52,0.52-0.52h2.42
		c0.29,0,0.52,0.23,0.52,0.52v2.42C51.72,24.03,51.48,24.26,51.2,24.26z"/>
	<path class="st20" d="M17.61,24.26h-2.42c-0.29,0-0.52-0.23-0.52-0.52v-2.42c0-0.29,0.23-0.52,0.52-0.52h2.42
		c0.29,0,0.52,0.23,0.52,0.52v2.42C18.13,24.03,17.9,24.26,17.61,24.26z"/>
	<path class="st20" d="M51.2,37.94h-2.42c-0.29,0-0.52-0.23-0.52-0.52V35c0-0.29,0.23-0.52,0.52-0.52h2.42
		c0.29,0,0.52,0.23,0.52,0.52v2.42C51.72,37.71,51.48,37.94,51.2,37.94z"/>
	<path class="st20" d="M17.61,37.94h-2.42c-0.29,0-0.52-0.23-0.52-0.52V35c0-0.29,0.23-0.52,0.52-0.52h2.42
		c0.29,0,0.52,0.23,0.52,0.52v2.42C18.13,37.71,17.9,37.94,17.61,37.94z"/>
	<path class="st20" d="M46.84,41.36l-7.87-2.99c-0.34-0.13-0.73-0.05-0.99,0.21c-0.26,0.26-0.34,0.64-0.21,0.99l2.99,7.87
		c0.18,0.47,0.64,0.79,1.15,0.78l3.51-0.04l2.16-2.16l0.04-3.51C47.63,42,47.32,41.54,46.84,41.36z M44.35,44.94
		c-0.54,0.54-1.42,0.54-1.96,0c-0.54-0.54-0.54-1.42,0-1.96c0.54-0.54,1.42-0.54,1.96,0C44.89,43.52,44.89,44.4,44.35,44.94z"/>
	<line class="st20" x1="37.99" y1="38.58" x2="42.39" y2="42.98"/>
	<line class="st22" x1="47.14" y1="50.13" x2="49.88" y2="55.08"/>
	<line class="st22" x1="54.49" y1="50.47" x2="49.54" y2="47.73"/>
	<path class="st22" d="M45.3,48.3l2.4-2.4c0.27-0.27,0.71-0.27,0.98,0l0.86,0.86c0.27,0.27,0.27,0.71,0,0.98l-2.4,2.4
		c-0.27,0.27-0.71,0.27-0.98,0l-0.86-0.86C45.03,49,45.03,48.57,45.3,48.3z"/>
	<text transform="matrix(1 0 0 1 20.8096 31.0537)" class="st3 st23 st24">BRAND</text>
</g>
<g>
	<path class="st25" d="M25.06,40.51c-0.42,0-0.76-0.34-0.76-0.76v-5.23c0-0.42,0.34-0.76,0.76-0.76s0.76,0.34,0.76,0.76v5.23
		C25.82,40.17,25.48,40.51,25.06,40.51z"/>
	<path class="st26" d="M54.44,50.33v5.58H28.6l1.4-5.58c0-2.4,1.94-4.34,4.34-4.34h15.77C52.5,45.99,54.44,47.93,54.44,50.33z"/>
	<path class="st27" d="M54.44,50.33v5.58H31.48v-5.58c0-2.4,1.94-4.34,4.34-4.34h14.29C52.5,45.99,54.44,47.93,54.44,50.33z"/>
	<path class="st26" d="M34.45,45.99l-0.26,6.67l2.8,0.7l-2.52,2.52h15.48l-2.52-2.52l2.8-0.7l-0.26-6.67"/>
	<path class="st28" d="M47.57,45.99l-2.82,9.91H39.7l-2.82-9.91"/>
	<path class="st29" d="M38.76,48.43l3.45,4.32l3.42-4.31l-3.42-0.64L38.76,48.43z"/>
	<path class="st30" d="M38.46,51.56l3.76-3.76l3.76,3.76l1.59-5.57H36.87L38.46,51.56z"/>
	<path class="st31" d="M45.43,40.42v5.57l-3.21,1.81l-0.99-0.56l-2.22-1.25v-5.57l2.22,0L45.43,40.42z"/>
	<path class="st29" d="M39.72,55.91l2.5-3.15l2.52,3.15"/>
	<path class="st32" d="M41.23,40.42l-2.22,0v5.57l2.22,1.25v-2.58c0.33,0.03,0.66,0.05,1,0.05c1.12,0,2.2-0.18,3.21-0.52v-3.77
		L41.23,40.42z"/>
	<path class="st32" d="M32.14,34.56c-1.67,0-3.03-1.21-3.03-2.71c0-1.5,1.36-2.71,3.03-2.71h20.17c1.67,0,3.03,1.21,3.03,2.71
		c0,1.5-1.36,2.71-3.03,2.71"/>
	<path class="st31" d="M52.31,23.2v10.09c0,5.57-4.52,10.09-10.09,10.09c-2.79,0-5.31-1.13-7.13-2.95
		c-1.83-1.83-2.95-4.35-2.95-7.13V23.2H52.31z"/>
	<path class="st32" d="M42.15,43.37c-2.76-0.02-5.25-1.14-7.06-2.95c-1.83-1.83-2.95-4.35-2.95-7.13V23.2h4.54v10.09
		c0,2.79,0.62,5.31,1.62,7.13C39.29,42.22,40.65,43.34,42.15,43.37z"/>
	<path class="st33" d="M45.81,33.18c-0.37,0-0.67-0.3-0.67-0.67v-1.4c0-0.37,0.3-0.67,0.67-0.67c0.37,0,0.67,0.3,0.67,0.67v1.4
		C46.48,32.88,46.18,33.18,45.81,33.18z"/>
	<path class="st33" d="M38.64,33.18c-0.37,0-0.67-0.3-0.67-0.67v-1.4c0-0.37,0.3-0.67,0.67-0.67c0.37,0,0.67,0.3,0.67,0.67v1.4
		C39.31,32.88,39.01,33.18,38.64,33.18z"/>
	<path class="st32" d="M52.31,23.2v2.53c-0.69,0.5-1.52,0.93-2.5,1.28c-3.66,1.32-7.19,0.87-9.7,0.18c0,0,0,0,0,0
		c-2.18-0.61-3.57-1.41-3.57-1.41s-0.92,4.43-4.4,4.43V23.2H52.31z"/>
	<path class="st27" d="M49.81,25.94c-3.66,1.32-7.19,0.87-9.7,0.18c0,0,0,0,0,0c-2.18-0.61-3.57-1.41-3.57-1.41s-0.92,4.43-4.4,4.43
		c0,0-2.32-4.1-2.25-7.89c0.04-1.97,1.66-3.44,3.5-3.44c0.34,0,0.7,0.05,1.05,0.16c0.99-2.65,3.6-4.33,6.42-4.16
		c0.44,0.03,0.88,0.06,1.33,0.1c0.08,0.01,0.17,0.02,0.26,0.02c0.01,0,0.02,0,0.03,0c4.61,0.43,9.28,1.28,12.02-1.76
		C54.5,12.17,59.03,22.62,49.81,25.94z"/>
	<path class="st26" d="M40.86,13.8c0.44,0.03,0.88,0.06,1.33,0.1c-4.07-0.17-7.3,8.79-2.08,12.21c-2.18-0.61-3.57-1.41-3.57-1.41
		s-0.92,4.43-4.4,4.43c0,0-2.32-4.1-2.25-7.89c0.04-1.97,1.66-3.44,3.5-3.44c0.34,0,0.7,0.05,1.05,0.16
		C35.43,15.31,38.04,13.63,40.86,13.8z"/>
	<path class="st25" d="M42.47,13.93c-0.01,0-0.02,0-0.03,0C42.46,13.93,42.46,13.93,42.47,13.93L42.47,13.93z"/>
	<path class="st34" d="M42.22,38.54c-1.07,0-2.14-0.41-2.95-1.22c-0.26-0.26-0.26-0.68,0-0.95c0.26-0.26,0.68-0.26,0.95,0
		c1.1,1.1,2.9,1.1,4,0c0.26-0.26,0.68-0.26,0.95,0c0.26,0.26,0.26,0.68,0,0.95C44.36,38.13,43.29,38.54,42.22,38.54z"/>
	<path class="st25" d="M29.99,39.75v4.75H24.3v-4.75c0-0.52,0.43-0.95,0.95-0.95h3.8C29.57,38.81,29.99,39.23,29.99,39.75z"/>
	<path class="st31" d="M29.99,39.75v4.75h-3.4v-4.75c0-0.52,0.42-0.95,0.95-0.95h1.5C29.57,38.81,29.99,39.23,29.99,39.75z"/>
	<path class="st27" d="M24.3,44.5h5.69v11.38H24.3V44.5z"/>
	<path class="st26" d="M24.3,44.5h2.28v11.38H24.3V44.5z"/>
	<path class="st26" d="M24.35,22.78v4.65c0,1.39-1.05,2.54-2.41,2.69c-0.1,0.01-0.2,0.02-0.3,0.02h-1.97c-1.49,0-2.71-1.21-2.71-2.7
		v-4.65H24.35z"/>
	<path class="st27" d="M24.35,22.78v4.65c0,1.39-1.05,2.54-2.41,2.69c-1.35-0.15-2.41-1.29-2.41-2.69v-4.65H24.35z"/>
	<path class="st35" d="M27.73,19.21c0,2.55-1.35,4.79-3.38,6.03h-7.38c-2.03-1.24-3.38-3.48-3.38-6.03c0-3.9,3.16-7.07,7.07-7.07
		c0.65,0,1.27,0.09,1.87,0.25C25.53,13.21,27.73,15.95,27.73,19.21z"/>
	<g>
		<path class="st36" d="M27.73,19.21c0,2.55-1.35,4.79-3.38,6.03h-3.64c-2.03-1.24-3.38-3.48-3.38-6.03c0-3.26,2.2-6,5.2-6.82
			C25.53,13.21,27.73,15.95,27.73,19.21z"/>
		<path class="st36" d="M10.99,19.97H8.87c-0.42,0-0.76-0.34-0.76-0.76c0-0.42,0.34-0.76,0.76-0.76h2.12c0.42,0,0.76,0.34,0.76,0.76
			C11.75,19.63,11.41,19.97,10.99,19.97z"/>
		<path class="st36" d="M29.04,15.13c-0.26,0-0.52-0.14-0.66-0.38c-0.21-0.36-0.09-0.83,0.28-1.04l1.83-1.06
			c0.36-0.21,0.83-0.09,1.04,0.28s0.09,0.83-0.28,1.04l-1.83,1.06C29.3,15.1,29.17,15.13,29.04,15.13z"/>
		<path class="st36" d="M10.45,25.86c-0.26,0-0.52-0.14-0.66-0.38c-0.21-0.36-0.09-0.83,0.28-1.04l1.83-1.06
			c0.36-0.21,0.83-0.09,1.04,0.28c0.21,0.36,0.09,0.83-0.28,1.04l-1.83,1.06C10.71,25.83,10.58,25.86,10.45,25.86z"/>
		<path class="st36" d="M25.5,11.59c-0.13,0-0.26-0.03-0.38-0.1c-0.36-0.21-0.49-0.67-0.28-1.04l1.06-1.83
			c0.21-0.36,0.67-0.49,1.04-0.28c0.36,0.21,0.49,0.67,0.28,1.04l-1.06,1.83C26.01,11.46,25.76,11.59,25.5,11.59z"/>
		<path class="st36" d="M20.66,10.3c-0.42,0-0.76-0.34-0.76-0.76V7.42c0-0.42,0.34-0.76,0.76-0.76c0.42,0,0.76,0.34,0.76,0.76v2.12
			C21.42,9.96,21.08,10.3,20.66,10.3z"/>
		<path class="st36" d="M15.83,11.59c-0.26,0-0.52-0.14-0.66-0.38l-1.06-1.83c-0.21-0.36-0.09-0.83,0.28-1.04
			c0.36-0.21,0.83-0.09,1.04,0.28l1.06,1.83c0.21,0.36,0.09,0.83-0.28,1.04C16.09,11.56,15.96,11.59,15.83,11.59z"/>
		<path class="st36" d="M12.28,15.13c-0.13,0-0.26-0.03-0.38-0.1l-1.83-1.06c-0.36-0.21-0.49-0.67-0.28-1.04
			c0.21-0.36,0.67-0.49,1.04-0.28l1.83,1.06c0.36,0.21,0.49,0.67,0.28,1.04C12.8,15,12.55,15.13,12.28,15.13z"/>
		<path class="st36" d="M32.45,19.97h-2.12c-0.42,0-0.76-0.34-0.76-0.76c0-0.42,0.34-0.76,0.76-0.76h2.12
			c0.42,0,0.76,0.34,0.76,0.76C33.21,19.63,32.87,19.97,32.45,19.97z"/>
		<path class="st36" d="M30.87,25.86c-0.13,0-0.26-0.03-0.38-0.1l-1.83-1.06c-0.36-0.21-0.49-0.67-0.28-1.04
			c0.21-0.36,0.67-0.49,1.04-0.28l1.83,1.06c0.36,0.21,0.49,0.67,0.28,1.04C31.39,25.73,31.13,25.86,30.87,25.86z"/>
	</g>
	<path class="st37" d="M23.03,20.07v5.17h-1.52v-5.17c0-0.42,0.34-0.76,0.76-0.76C22.7,19.31,23.03,19.65,23.03,20.07z"/>
	<path class="st37" d="M19.81,20.07v5.17h-1.52v-5.17c0-0.42,0.34-0.76,0.76-0.76C19.47,19.31,19.81,19.65,19.81,20.07z"/>
</g>
</svg>
