<?xml version="1.0" encoding="utf-8"?>
<!-- Generator: Adobe Illustrator 24.3.0, SVG Export Plug-In . SVG Version: 6.00 Build 0)  -->
<svg version="1.1" id="Layer_1" xmlns="http://www.w3.org/2000/svg" xmlns:xlink="http://www.w3.org/1999/xlink" x="0px" y="0px"
	 viewBox="0 0 65 65" style="enable-background:new 0 0 65 65;" xml:space="preserve">
<style type="text/css">
	.st0{fill:#EBF7FB;}
	.st1{display:none;}
	.st2{display:inline;fill:#ED2224;}
	.st3{display:inline;fill:#010101;}
	.st4{display:inline;fill:#F9BD15;}
	.st5{display:inline;fill:#FCD82C;}
	.st6{display:inline;}
	.st7{fill:#FCD82C;}
	.st8{display:inline;fill:#4187C7;stroke:#010101;stroke-width:0.5;stroke-miterlimit:10;}
	.st9{display:inline;fill:#1F78BD;stroke:#010101;stroke-width:0.5;stroke-miterlimit:10;}
	.st10{display:inline;fill:#E0F3FB;stroke:#010101;stroke-width:0.5;stroke-miterlimit:10;}
	.st11{display:inline;fill:#C9EBFA;stroke:#010101;stroke-width:0.5;stroke-miterlimit:10;}
	.st12{display:inline;fill:#8D9CA8;stroke:#010101;stroke-width:0.25;stroke-miterlimit:10;}
	.st13{fill:#FEE178;stroke:#010101;stroke-width:0.5;stroke-miterlimit:10;}
	.st14{fill:#FFD15C;stroke:#010101;stroke-width:0.5;stroke-miterlimit:10;}
	.st15{fill:#FEC446;stroke:#010101;stroke-width:0.5;stroke-miterlimit:10;}
	.st16{fill:#A0ADBB;stroke:#010101;stroke-width:0.5;stroke-miterlimit:10;}
	.st17{fill:#8D9CA8;stroke:#010101;stroke-width:0.5;stroke-miterlimit:10;}
	
		.st18{fill:none;stroke:#010101;stroke-width:0.5;stroke-linecap:round;stroke-linejoin:round;stroke-miterlimit:10;stroke-dasharray:2,1;}
	.st19{fill:none;stroke:#010101;stroke-width:0.5;stroke-miterlimit:10;}
	.st20{display:inline;fill:none;stroke:#010101;stroke-width:0.5;stroke-miterlimit:10;}
	.st21{display:inline;fill:none;stroke:#010101;stroke-width:9;stroke-miterlimit:10;}
	.st22{display:inline;fill:none;stroke:#010101;stroke-width:0.25;stroke-miterlimit:10;}
	.st23{font-family:'MyriadPro-Bold';}
	.st24{font-size:6.6718px;}
	.st25{display:inline;fill:#F4AF9E;}
	.st26{display:inline;fill:#3D495B;}
	.st27{display:inline;fill:#526075;}
	.st28{display:inline;fill:#F3F3F3;}
	.st29{display:inline;fill:#EF4A67;}
	.st30{display:inline;fill:#E6E6E5;}
	.st31{display:inline;fill:#F9C3B0;}
	.st32{display:inline;fill:#EA9E8F;}
	.st33{display:inline;fill:#2A3544;}
	.st34{display:inline;fill:#E16E86;}
	.st35{display:inline;fill:#E9AE21;}
	.st36{fill:#FFC72B;}
	.st37{display:inline;fill:#FFFFFF;}
	.st38{fill:#EC2227;}
	.st39{fill:#F1F0E6;}
	.st40{fill:#C1E4F9;}
	.st41{fill:#9ABDE4;}
	.st42{fill:#4D7FC1;}
	.st43{fill:#AFD0EE;}
	.st44{fill:#FFCE04;}
	.st45{fill:#FEEA99;}
	.st46{fill:#FAFBFC;}
	.st47{fill:#E63B35;}
	.st48{fill:#EF4538;}
	.st49{fill:#010101;}
	.st50{fill:#F0DC78;}
</style>
<circle class="st0" cx="32.5" cy="32.5" r="32.5"/>
<g class="st1">
	<path class="st2" d="M51.4,51.9h-1.1c0.3-0.2,0.5-0.5,0.6-0.9h-4c0.1,0.3,0.3,0.6,0.6,0.9H35.7c0.1-0.2,0.2-0.4,0.2-0.6l0,0
		c0-0.6-0.5-1.1-1-1.1c-1.4-1.4-2-2.8-1.7-4.3h-7.6c0.3,1.4-0.3,2.8-1.7,4.3c-0.6,0-1,0.5-1,1.1l0,0c0,0.2,0.1,0.4,0.2,0.6H8.8
		c-0.3,0-0.5,0.2-0.5,0.5c0,0.3,0.2,0.5,0.5,0.5h42.6c0.3,0,0.5-0.2,0.5-0.5C51.8,52.2,51.6,51.9,51.4,51.9z"/>
	<path class="st2" d="M56.5,51.9H54c-0.3,0-0.5,0.2-0.5,0.5c0,0.3,0.2,0.5,0.5,0.5h2.5c0.3,0,0.5-0.2,0.5-0.5
		C57,52.2,56.8,51.9,56.5,51.9z"/>
	<path class="st2" d="M12.1,44.9h33.3c-0.2-1.4-0.8-2.8-1.7-4.1c-0.3-0.3-0.5-0.6-0.7-1H9.8v2.7C9.8,43.9,10.9,44.9,12.1,44.9z
		 M29.3,41.2c0.7,0,1.2,0.5,1.2,1.2c0,0.7-0.5,1.2-1.2,1.2s-1.2-0.5-1.2-1.2C28.1,41.8,28.6,41.2,29.3,41.2z"/>
	<path class="st3" d="M41.9,37.2H16c-0.3,0-0.5-0.2-0.5-0.5v-4.4c0-0.3,0.2-0.5,0.5-0.5h26.7c0.3,0,0.5,0.2,0.5,0.5l0,0
		c1.2-1.7,3.2-2.9,5.6-2.9V17.3c0-0.9-0.7-1.7-1.7-1.7H11.6c-0.9,0-1.7,0.7-1.7,1.7v21.6h32.6C42.1,38.3,42,37.7,41.9,37.2z
		 M33.1,28.9c0,0.3-0.2,0.5-0.5,0.5h-6.7c-0.3,0-0.5-0.2-0.5-0.5v-5.8c0-0.3,0.2-0.5,0.5-0.5h6.8c0.3,0,0.5,0.2,0.5,0.5
		C33.1,23.1,33.1,28.9,33.1,28.9z M43.4,23.1v5.8c0,0.3-0.2,0.5-0.5,0.5h-6.7c-0.3,0-0.5-0.2-0.5-0.5v-5.8c0-0.3,0.2-0.5,0.5-0.5
		h6.7C43.2,22.6,43.4,22.9,43.4,23.1z M39.2,18.4c0-0.1,0.1-0.2,0.2-0.2h2.9c0.1,0,0.2,0.1,0.2,0.2v1.1c0,0.1-0.1,0.2-0.2,0.2h-2.9
		c-0.1,0-0.2-0.1-0.2-0.2V18.4z M34.5,18.4c0-0.1,0.1-0.2,0.2-0.2h2.9c0.1,0,0.2,0.1,0.2,0.2v1.1c0,0.1-0.1,0.2-0.2,0.2h-2.9
		c-0.1,0-0.2-0.1-0.2-0.2V18.4z M29.9,18.4c0-0.1,0.1-0.2,0.2-0.2h2.9c0.1,0,0.2,0.1,0.2,0.2v1.1c0,0.1-0.1,0.2-0.2,0.2h-2.9
		c-0.1,0-0.2-0.1-0.2-0.2V18.4z M25.2,18.4c0-0.1,0.1-0.2,0.2-0.2h2.9c0.1,0,0.2,0.1,0.2,0.2v1.1c0,0.1-0.1,0.2-0.2,0.2h-2.9
		c-0.1,0-0.2-0.1-0.2-0.2V18.4z M20.6,18.4c0-0.1,0.1-0.2,0.2-0.2h2.9c0.1,0,0.2,0.1,0.2,0.2v1.1c0,0.1-0.1,0.2-0.2,0.2h-2.9
		c-0.1,0-0.2-0.1-0.2-0.2V18.4z M15.9,18.4c0-0.1,0.1-0.2,0.2-0.2h2.9c0.1,0,0.2,0.1,0.2,0.2v1.1c0,0.1-0.1,0.2-0.2,0.2h-2.9
		c-0.1,0-0.2-0.1-0.2-0.2L15.9,18.4z M15,28.9v-5.8c0-0.3,0.2-0.5,0.5-0.5h6.7c0.3,0,0.5,0.2,0.5,0.5v5.8c0,0.3-0.2,0.5-0.5,0.5
		h-6.7C15.3,29.4,15,29.2,15,28.9z"/>
	<path class="st4" d="M42.9,36.4c0,1.4,0.5,2.7,1.4,3.8c1.2,1.5,1.9,3.3,2,5.2h2.4v-6.8l-0.9,0.6c-0.2,0.1-0.4,0.1-0.5,0l-1.5-1
		c-0.2-0.1-0.3-0.4-0.1-0.6c0.1-0.2,0.4-0.3,0.6-0.1l1.3,0.9l1.3-0.9l0,0l0,0c0.1,0,0.1,0,0.2,0l0,0l0,0c0.1,0,0.1,0,0.2,0l0,0l0,0
		l1.3,0.9l1.3-0.9c0.2-0.1,0.5-0.1,0.6,0.1c0.1,0.2,0.1,0.5-0.1,0.6l-1.6,1c-0.2,0.1-0.4,0.1-0.5,0l-0.8-0.6v6.8h2.3V45
		c0-1.8,0.6-3.5,1.7-5.1c0.8-1.1,1.2-2.3,1.1-3.7c-0.1-3.2-2.7-5.9-5.9-5.9C45.6,30.3,42.9,33,42.9,36.4z"/>
	<path class="st5" d="M52.2,48.8H46c-0.4,0-0.6,0.3-0.6,0.6S45.6,50,46,50h6.3c0.4,0,0.6-0.3,0.6-0.6C52.8,49.1,52.5,48.8,52.2,48.8
		z"/>
	<path class="st5" d="M52.2,46.5H46c-0.4,0-0.6,0.3-0.6,0.6c0,0.4,0.3,0.6,0.6,0.6h6.3c0.4,0,0.6-0.3,0.6-0.6
		C52.8,46.8,52.5,46.5,52.2,46.5z"/>
	<g class="st6">
		<g>
			<path class="st7" d="M59.2,31.5l-2.4,1.1c-0.3,0.1-0.5,0.5-0.3,0.9c0.1,0.3,0.5,0.5,0.9,0.3l2.4-1.1c0.3-0.1,0.5-0.5,0.3-0.9
				C60,31.5,59.5,31.3,59.2,31.5z"/>
		</g>
	</g>
	<g class="st6">
		<g>
			<path class="st7" d="M60.2,36.8l-2.7-0.1c-0.4,0-0.7,0.3-0.7,0.6c0,0.4,0.3,0.7,0.6,0.7l2.7,0.1c0.4,0,0.7-0.3,0.7-0.6
				C61,37.1,60.7,36.8,60.2,36.8z"/>
		</g>
	</g>
	<g class="st6">
		<g>
			<path class="st7" d="M55.6,27.5l-1.7,2c-0.2,0.3-0.2,0.7,0.1,0.9s0.7,0.2,0.9-0.1l1.7-2c0.2-0.3,0.2-0.7-0.1-0.9
				C56.2,27.2,55.8,27.2,55.6,27.5z"/>
		</g>
	</g>
	<g class="st6">
		<g>
			<path class="st7" d="M50.5,25.5l-0.1,2.7c0,0.4,0.3,0.7,0.6,0.7c0.4,0,0.7-0.3,0.7-0.6l0.1-2.7c0-0.4-0.3-0.7-0.6-0.7
				C50.8,24.9,50.5,25.2,50.5,25.5z"/>
		</g>
	</g>
</g>
<g class="st1">
	<path class="st8" d="M54.5,18H11.9v-4.3c0-0.7,0.5-1.2,1.2-1.2h40.2c0.7,0,1.2,0.5,1.2,1.2L54.5,18L54.5,18z"/>
	<path class="st9" d="M53.3,12.5h-3.1c0.7,0,1.2,0.5,1.2,1.2V18h3.1v-4.3C54.5,13,53.9,12.5,53.3,12.5z"/>
	<path class="st10" d="M53.3,47.5H13.1c-0.7,0-1.2-0.5-1.2-1.2V18h42.6v28.2C54.5,46.9,53.9,47.5,53.3,47.5z"/>
	<path class="st11" d="M51.4,18v28.2c0,0.7-0.5,1.2-1.2,1.2h3.1c0.7,0,1.2-0.5,1.2-1.2V18H51.4z"/>
	<path class="st12" d="M51.2,24.3h-2.4c-0.3,0-0.5-0.2-0.5-0.5v-2.4c0-0.3,0.2-0.5,0.5-0.5h2.4c0.3,0,0.5,0.2,0.5,0.5v2.4
		C51.7,24,51.5,24.3,51.2,24.3z"/>
	<path class="st12" d="M17.6,24.3h-2.4c-0.3,0-0.5-0.2-0.5-0.5v-2.4c0-0.3,0.2-0.5,0.5-0.5h2.4c0.3,0,0.5,0.2,0.5,0.5v2.4
		C18.1,24,17.9,24.3,17.6,24.3z"/>
	<path class="st12" d="M51.2,37.9h-2.4c-0.3,0-0.5-0.2-0.5-0.5V35c0-0.3,0.2-0.5,0.5-0.5h2.4c0.3,0,0.5,0.2,0.5,0.5v2.4
		C51.7,37.7,51.5,37.9,51.2,37.9z"/>
	<path class="st12" d="M17.6,37.9h-2.4c-0.3,0-0.5-0.2-0.5-0.5V35c0-0.3,0.2-0.5,0.5-0.5h2.4c0.3,0,0.5,0.2,0.5,0.5v2.4
		C18.1,37.7,17.9,37.9,17.6,37.9z"/>
	<g class="st6">
		<path class="st13" d="M46.8,41.4l-7.9-3c-0.3-0.1-0.7,0-1,0.2c-0.3,0.3-0.3,0.6-0.2,1l3,7.9c0.2,0.5,0.6,0.8,1.2,0.8l3.5,0
			l2.2-2.2l0-3.5C47.6,42,47.3,41.5,46.8,41.4z M44.3,44.9c-0.5,0.5-1.4,0.5-2,0s-0.5-1.4,0-2s1.4-0.5,2,0S44.9,44.4,44.3,44.9z"/>
		<path class="st14" d="M46.8,41.4L43.2,40c0.2,0.8,0.4,1.7,0.5,2.6c0.2,0.1,0.4,0.2,0.6,0.3c0.5,0.5,0.5,1.4,0,2
			c-0.1,0.1-0.2,0.2-0.4,0.3c0,0.1,0,0.3,0,0.4c0,0.9,0,1.7-0.1,2.5l1.6,0l2.2-2.2l0-3.5C47.6,42,47.3,41.5,46.8,41.4z"/>
		<path class="st15" d="M45.3,48.3l2.4-2.4c0.3-0.3,0.7-0.3,1,0l0.9,0.9c0.3,0.3,0.3,0.7,0,1l-2.4,2.4c-0.3,0.3-0.7,0.3-1,0
			l-0.9-0.9C45,49,45,48.6,45.3,48.3z"/>
		<polygon class="st16" points="49.5,47.7 47.1,50.1 49.9,55.1 54.5,55.1 54.5,50.5 		"/>
		<polygon class="st17" points="54.5,52.6 54.5,50.5 49.5,47.7 48.2,49.1 		"/>
	</g>
	<g class="st6">
		<g>
			<line class="st18" x1="50" y1="34.5" x2="50" y2="34"/>
			<line class="st18" x1="50" y1="31.5" x2="50" y2="26"/>
			<line class="st18" x1="50" y1="24.8" x2="50" y2="24.3"/>
		</g>
	</g>
	<g class="st6">
		<g>
			<line class="st18" x1="16.4" y1="34.5" x2="16.4" y2="34"/>
			<line class="st18" x1="16.4" y1="31.5" x2="16.4" y2="26"/>
			<line class="st18" x1="16.4" y1="24.8" x2="16.4" y2="24.3"/>
		</g>
	</g>
	<g class="st6">
		<g>
			<line class="st19" x1="48.3" y1="36.2" x2="47.7" y2="36.2"/>
			<line class="st18" x1="45" y1="36.2" x2="20" y2="36.2"/>
			<line class="st19" x1="18.6" y1="36.2" x2="18.1" y2="36.2"/>
		</g>
	</g>
	<g class="st6">
		<g>
			<line class="st18" x1="48.3" y1="22.5" x2="47.7" y2="22.5"/>
			<line class="st18" x1="45" y1="22.5" x2="20" y2="22.5"/>
			<line class="st18" x1="18.6" y1="22.5" x2="18.1" y2="22.5"/>
		</g>
	</g>
	<path class="st20" d="M25.1,12.5h28.1c0.7,0,1.2,0.5,1.2,1.2v11.4"/>
	<path class="st20" d="M11.9,38.8V13.7c0-0.7,0.5-1.2,1.2-1.2h9"/>
	<path class="st20" d="M11.9,41.8v4.5c0,0.7,0.5,1.2,1.2,1.2h27.6"/>
	<path class="st20" d="M54.5,28.1v18.1c0,0.7-0.5,1.2-1.2,1.2h-3.5"/>
	<line class="st20" x1="11.9" y1="18" x2="54.5" y2="18"/>
	<line class="st21" x1="15" y1="15.3" x2="15" y2="15.3"/>
	<line class="st22" x1="18" y1="15.3" x2="18" y2="15.3"/>
	<line class="st22" x1="20.9" y1="15.3" x2="20.9" y2="15.3"/>
	<path class="st20" d="M51.2,24.3h-2.4c-0.3,0-0.5-0.2-0.5-0.5v-2.4c0-0.3,0.2-0.5,0.5-0.5h2.4c0.3,0,0.5,0.2,0.5,0.5v2.4
		C51.7,24,51.5,24.3,51.2,24.3z"/>
	<path class="st20" d="M17.6,24.3h-2.4c-0.3,0-0.5-0.2-0.5-0.5v-2.4c0-0.3,0.2-0.5,0.5-0.5h2.4c0.3,0,0.5,0.2,0.5,0.5v2.4
		C18.1,24,17.9,24.3,17.6,24.3z"/>
	<path class="st20" d="M51.2,37.9h-2.4c-0.3,0-0.5-0.2-0.5-0.5V35c0-0.3,0.2-0.5,0.5-0.5h2.4c0.3,0,0.5,0.2,0.5,0.5v2.4
		C51.7,37.7,51.5,37.9,51.2,37.9z"/>
	<path class="st20" d="M17.6,37.9h-2.4c-0.3,0-0.5-0.2-0.5-0.5V35c0-0.3,0.2-0.5,0.5-0.5h2.4c0.3,0,0.5,0.2,0.5,0.5v2.4
		C18.1,37.7,17.9,37.9,17.6,37.9z"/>
	<path class="st20" d="M46.8,41.4l-7.9-3c-0.3-0.1-0.7,0-1,0.2c-0.3,0.3-0.3,0.6-0.2,1l3,7.9c0.2,0.5,0.6,0.8,1.2,0.8l3.5,0l2.2-2.2
		l0-3.5C47.6,42,47.3,41.5,46.8,41.4z M44.3,44.9c-0.5,0.5-1.4,0.5-2,0s-0.5-1.4,0-2s1.4-0.5,2,0S44.9,44.4,44.3,44.9z"/>
	<line class="st20" x1="38" y1="38.6" x2="42.4" y2="43"/>
	<line class="st22" x1="47.1" y1="50.1" x2="49.9" y2="55.1"/>
	<line class="st22" x1="54.5" y1="50.5" x2="49.5" y2="47.7"/>
	<path class="st22" d="M45.3,48.3l2.4-2.4c0.3-0.3,0.7-0.3,1,0l0.9,0.9c0.3,0.3,0.3,0.7,0,1l-2.4,2.4c-0.3,0.3-0.7,0.3-1,0l-0.9-0.9
		C45,49,45,48.6,45.3,48.3z"/>
	<text transform="matrix(1 0 0 1 20.8096 31.0537)" class="st3 st23 st24">BRAND</text>
</g>
<g class="st1">
	<path class="st25" d="M25.1,40.5c-0.4,0-0.8-0.3-0.8-0.8v-5.2c0-0.4,0.3-0.8,0.8-0.8s0.8,0.3,0.8,0.8v5.2
		C25.8,40.2,25.5,40.5,25.1,40.5z"/>
	<path class="st26" d="M54.4,50.3v5.6H28.6l1.4-5.6c0-2.4,1.9-4.3,4.3-4.3h15.8C52.5,46,54.4,47.9,54.4,50.3z"/>
	<path class="st27" d="M54.4,50.3v5.6h-23v-5.6c0-2.4,1.9-4.3,4.3-4.3h14.3C52.5,46,54.4,47.9,54.4,50.3z"/>
	<path class="st26" d="M34.5,46l-0.3,6.7l2.8,0.7l-2.5,2.5H50l-2.5-2.5l2.8-0.7L50,46"/>
	<path class="st28" d="M47.6,46l-2.8,9.9h-5L36.9,46"/>
	<path class="st29" d="M38.8,48.4l3.5,4.3l3.4-4.3l-3.4-0.6L38.8,48.4z"/>
	<path class="st30" d="M38.5,51.6l3.8-3.8l3.8,3.8l1.6-5.6H36.9L38.5,51.6z"/>
	<path class="st31" d="M45.4,40.4V46l-3.2,1.8l-1-0.6L39,46v-5.6h2.2H45.4z"/>
	<path class="st29" d="M39.7,55.9l2.5-3.2l2.5,3.2"/>
	<path class="st32" d="M41.2,40.4H39V46l2.2,1.2v-2.6c0.3,0,0.7,0,1,0c1.1,0,2.2-0.2,3.2-0.5v-3.8L41.2,40.4z"/>
	<path class="st32" d="M32.1,34.6c-1.7,0-3-1.2-3-2.7s1.4-2.7,3-2.7h20.2c1.7,0,3,1.2,3,2.7s-1.4,2.7-3,2.7"/>
	<path class="st31" d="M52.3,23.2v10.1c0,5.6-4.5,10.1-10.1,10.1c-2.8,0-5.3-1.1-7.1-3c-1.8-1.8-3-4.3-3-7.1V23.2H52.3z"/>
	<path class="st32" d="M42.2,43.4c-2.8,0-5.2-1.1-7.1-3c-1.8-1.8-3-4.3-3-7.1V23.2h4.5v10.1c0,2.8,0.6,5.3,1.6,7.1
		C39.3,42.2,40.7,43.3,42.2,43.4z"/>
	<path class="st33" d="M45.8,33.2c-0.4,0-0.7-0.3-0.7-0.7v-1.4c0-0.4,0.3-0.7,0.7-0.7s0.7,0.3,0.7,0.7v1.4
		C46.5,32.9,46.2,33.2,45.8,33.2z"/>
	<path class="st33" d="M38.6,33.2c-0.4,0-0.7-0.3-0.7-0.7v-1.4c0-0.4,0.3-0.7,0.7-0.7s0.7,0.3,0.7,0.7v1.4
		C39.3,32.9,39,33.2,38.6,33.2z"/>
	<path class="st32" d="M52.3,23.2v2.5c-0.7,0.5-1.5,0.9-2.5,1.3c-3.7,1.3-7.2,0.9-9.7,0.2l0,0c-2.2-0.6-3.6-1.4-3.6-1.4
		s-0.9,4.4-4.4,4.4v-7H52.3z"/>
	<path class="st27" d="M49.8,25.9c-3.7,1.3-7.2,0.9-9.7,0.2l0,0c-2.2-0.6-3.6-1.4-3.6-1.4s-0.9,4.4-4.4,4.4c0,0-2.3-4.1-2.2-7.9
		c0-2,1.7-3.4,3.5-3.4c0.3,0,0.7,0,1,0.2c1-2.6,3.6-4.3,6.4-4.2c0.4,0,0.9,0.1,1.3,0.1c0.1,0,0.2,0,0.3,0c0,0,0,0,0,0
		c4.6,0.4,9.3,1.3,12-1.8C54.5,12.2,59,22.6,49.8,25.9z"/>
	<path class="st26" d="M40.9,13.8c0.4,0,0.9,0.1,1.3,0.1c-4.1-0.2-7.3,8.8-2.1,12.2c-2.2-0.6-3.6-1.4-3.6-1.4s-0.9,4.4-4.4,4.4
		c0,0-2.3-4.1-2.2-7.9c0-2,1.7-3.4,3.5-3.4c0.3,0,0.7,0,1,0.2C35.4,15.3,38,13.6,40.9,13.8z"/>
	<path class="st25" d="M42.5,13.9C42.5,13.9,42.5,13.9,42.5,13.9C42.5,13.9,42.5,13.9,42.5,13.9L42.5,13.9z"/>
	<path class="st34" d="M42.2,38.5c-1.1,0-2.1-0.4-3-1.2c-0.3-0.3-0.3-0.7,0-1c0.3-0.3,0.7-0.3,1,0c1.1,1.1,2.9,1.1,4,0
		c0.3-0.3,0.7-0.3,1,0c0.3,0.3,0.3,0.7,0,1C44.4,38.1,43.3,38.5,42.2,38.5z"/>
	<path class="st25" d="M30,39.8v4.8h-5.7v-4.8c0-0.5,0.4-1,1-1H29C29.6,38.8,30,39.2,30,39.8z"/>
	<path class="st31" d="M30,39.8v4.8h-3.4v-4.8c0-0.5,0.4-1,1-1H29C29.6,38.8,30,39.2,30,39.8z"/>
	<path class="st27" d="M24.3,44.5H30v11.4h-5.7V44.5z"/>
	<path class="st26" d="M24.3,44.5h2.3v11.4h-2.3V44.5z"/>
	<path class="st26" d="M24.4,22.8v4.6c0,1.4-1,2.5-2.4,2.7c-0.1,0-0.2,0-0.3,0h-2c-1.5,0-2.7-1.2-2.7-2.7v-4.6L24.4,22.8L24.4,22.8z
		"/>
	<path class="st27" d="M24.4,22.8v4.6c0,1.4-1,2.5-2.4,2.7c-1.4-0.1-2.4-1.3-2.4-2.7v-4.6H24.4z"/>
	<path class="st35" d="M27.7,19.2c0,2.5-1.4,4.8-3.4,6H17c-2-1.2-3.4-3.5-3.4-6c0-3.9,3.2-7.1,7.1-7.1c0.6,0,1.3,0.1,1.9,0.2
		C25.5,13.2,27.7,15.9,27.7,19.2z"/>
	<g class="st6">
		<path class="st36" d="M27.7,19.2c0,2.5-1.4,4.8-3.4,6h-3.6c-2-1.2-3.4-3.5-3.4-6c0-3.3,2.2-6,5.2-6.8
			C25.5,13.2,27.7,15.9,27.7,19.2z"/>
		<path class="st36" d="M11,20H8.9c-0.4,0-0.8-0.3-0.8-0.8s0.3-0.8,0.8-0.8H11c0.4,0,0.8,0.3,0.8,0.8S11.4,20,11,20z"/>
		<path class="st36" d="M29,15.1c-0.3,0-0.5-0.1-0.7-0.4c-0.2-0.4-0.1-0.8,0.3-1l1.8-1.1c0.4-0.2,0.8-0.1,1,0.3s0.1,0.8-0.3,1
			L29.4,15C29.3,15.1,29.2,15.1,29,15.1z"/>
		<path class="st36" d="M10.4,25.9c-0.3,0-0.5-0.1-0.7-0.4c-0.2-0.4-0.1-0.8,0.3-1l1.8-1.1c0.4-0.2,0.8-0.1,1,0.3
			c0.2,0.4,0.1,0.8-0.3,1l-1.8,1.1C10.7,25.8,10.6,25.9,10.4,25.9z"/>
		<path class="st36" d="M25.5,11.6c-0.1,0-0.3,0-0.4-0.1c-0.4-0.2-0.5-0.7-0.3-1l1.1-1.8c0.2-0.4,0.7-0.5,1-0.3
			c0.4,0.2,0.5,0.7,0.3,1l-1.1,1.8C26,11.5,25.8,11.6,25.5,11.6z"/>
		<path class="st36" d="M20.7,10.3c-0.4,0-0.8-0.3-0.8-0.8V7.4c0-0.4,0.3-0.8,0.8-0.8s0.8,0.3,0.8,0.8v2.1
			C21.4,10,21.1,10.3,20.7,10.3z"/>
		<path class="st36" d="M15.8,11.6c-0.3,0-0.5-0.1-0.7-0.4l-1.1-1.8c-0.2-0.4-0.1-0.8,0.3-1c0.4-0.2,0.8-0.1,1,0.3l1.1,1.8
			c0.2,0.4,0.1,0.8-0.3,1C16.1,11.6,16,11.6,15.8,11.6z"/>
		<path class="st36" d="M12.3,15.1c-0.1,0-0.3,0-0.4-0.1L10.1,14c-0.4-0.2-0.5-0.7-0.3-1c0.2-0.4,0.7-0.5,1-0.3l1.8,1.1
			c0.4,0.2,0.5,0.7,0.3,1C12.8,15,12.6,15.1,12.3,15.1z"/>
		<path class="st36" d="M32.5,20h-2.1c-0.4,0-0.8-0.3-0.8-0.8s0.3-0.8,0.8-0.8h2.1c0.4,0,0.8,0.3,0.8,0.8S32.9,20,32.5,20z"/>
		<path class="st36" d="M30.9,25.9c-0.1,0-0.3,0-0.4-0.1l-1.8-1.1c-0.4-0.2-0.5-0.7-0.3-1c0.2-0.4,0.7-0.5,1-0.3l1.8,1.1
			c0.4,0.2,0.5,0.7,0.3,1C31.4,25.7,31.1,25.9,30.9,25.9z"/>
	</g>
	<path class="st37" d="M23,20.1v5.2h-1.5v-5.2c0-0.4,0.3-0.8,0.8-0.8C22.7,19.3,23,19.6,23,20.1z"/>
	<path class="st37" d="M19.8,20.1v5.2h-1.5v-5.2c0-0.4,0.3-0.8,0.8-0.8S19.8,19.6,19.8,20.1z"/>
</g>
<path class="st38" d="M48.6,45.3H10.4V10.9c0-0.6,0.5-1.1,1.1-1.1l0,0h36c0.6,0,1.1,0.5,1.1,1.1l0,0V45.3z"/>
<path class="st39" d="M33.1,43.8c-1.1-1.2-3-1.2-4.2,0c-0.4,0.4-0.4,1.1,0,1.5l0,0h5.6L33.1,43.8z"/>
<path class="st39" d="M45.7,23.5c-1.2,0-2.3,0.6-3,1.5l-1.5,2.1v2.7l2.7-3.7c0.7-1,1.8-1.5,3-1.5h1.8v-1.1H45.7z"/>
<path class="st38" d="M48.6,15.9H10.4v-5c0-0.6,0.5-1.1,1.1-1.1l0,0h36c0.6,0,1.1,0.5,1.1,1.1l0,0V15.9z"/>
<path class="st40" d="M11.1,11.6c0-0.6,0.5-1.1,1.1-1.1l0,0h36c0.1,0,0.2,0,0.3,0.1c-0.1-0.5-0.6-0.8-1-0.8h-36
	c-0.6,0-1.1,0.5-1.1,1.1l0,0v5h0.7V11.6z"/>
<path class="st39" d="M10.4,15.9h38.2v1.4H10.4V15.9z"/>
<circle class="st41" cx="13.2" cy="13.5" r="0.7"/>
<circle class="st41" cx="16.2" cy="13.5" r="0.7"/>
<circle class="st41" cx="19.2" cy="13.5" r="0.7"/>
<circle class="st42" cx="13.2" cy="13.2" r="0.7"/>
<circle class="st43" cx="16.2" cy="13.2" r="0.7"/>
<circle class="st44" cx="19.2" cy="13.2" r="0.7"/>
<path class="st42" d="M30,26.4h12.6c1,0,1.9,0.8,1.9,1.9v4.1c0,1-0.8,1.9-1.9,1.9H30c-1,0-1.9-0.8-1.9-1.9v-4
	C28.1,27.2,28.9,26.4,30,26.4z"/>
<path class="st43" d="M17.1,47.1h13.5c1,0,1.9-0.8,1.9-1.9V30.8l-2.6,3.7c-0.7,1-1.8,1.5-3,1.5h-9.7c-1,0-1.9,0.8-1.9,1.9v7.3
	C15.2,46.2,16.1,47.1,17.1,47.1L17.1,47.1z"/>
<path class="st44" d="M47.5,38.6c-1,0-1.9,0.8-1.9,1.9v-1.5c0-1-0.8-1.9-1.9-1.9s-1.9,0.8-1.9,1.9v-1c0-1-0.8-1.9-1.9-1.9
	S38.1,37,38.1,38v-6.7c0-1-0.8-1.9-1.9-1.9l0,0c-1,0-1.9,0.8-1.9,1.9V45l-2-2c-1.1-1.2-3-1.2-4.2,0c-0.4,0.4-0.4,1.1,0,1.5l7.9,7.9
	c0.2,0.2,0.3,0.4,0.5,0.6v0h10.5v0c1.5-1.4,2.3-3.3,2.3-5.4v-7.2C49.4,39.4,48.5,38.6,47.5,38.6L47.5,38.6L47.5,38.6z"/>
<path class="st45" d="M48.1,38.7c0.1,0.2,0.1,0.4,0.1,0.6v7.2c0,2-0.8,4-2.3,5.4v0H35.4l0.6,0.6c0.2,0.2,0.3,0.4,0.5,0.6v0h10.5v0
	c1.5-1.4,2.3-3.3,2.3-5.4v-7.2C49.4,39.7,48.9,38.9,48.1,38.7L48.1,38.7z"/>
<path class="st44" d="M36.6,52.9h10.5v3.7H36.6V52.9z"/>
<path class="st45" d="M36.6,54.8h10.5v1.9H36.6V54.8z"/>
<path class="st46" d="M55.4,12.4H41.8c-1,0-1.9,0.8-1.9,1.9v14.4l2.7-3.7c0.7-1,1.8-1.5,3-1.5h9.7c1,0,1.9-0.8,1.9-1.9v-7.3
	C57.2,13.3,56.4,12.4,55.4,12.4L55.4,12.4z"/>
<path class="st42" d="M25.7,38.3c0.1,0,0.1,0,0.2,0.1c0,0.1,0.1,0.1,0.1,0.2c0,1.2-0.3,2.3-0.9,3.3c-0.6,1-1.4,1.8-2.4,2.4
	c-1,0.6-2.2,0.9-3.3,0.9c-0.1,0-0.1,0-0.2-0.1c-0.1,0-0.1-0.1-0.1-0.2l-0.3-1.5c0-0.1,0-0.2,0-0.2c0-0.1,0.1-0.1,0.2-0.2l1.6-0.7
	c0.1,0,0.1,0,0.2,0c0.1,0,0.1,0.1,0.2,0.1l0.7,0.8c0.5-0.2,1.1-0.6,1.5-1s0.8-0.9,1-1.5l-0.9-0.7c-0.1,0-0.1-0.1-0.1-0.2
	s0-0.2,0-0.2l0.7-1.6c0-0.1,0.1-0.1,0.2-0.2c0.1,0,0.1,0,0.2,0L25.7,38.3z"/>
<path class="st47" d="M45,16.2V20c0,0.4,0.3,0.7,0.7,0.7c0,0,0,0,0,0h5.9c0.4,0,0.7-0.3,0.7-0.7c0,0,0,0,0,0v-3.8L45,16.2L45,16.2z"
	/>
<path class="st48" d="M48.6,18.9c-0.2,0-0.3-0.1-0.5-0.2c-0.2-0.1-0.3-0.2-0.4-0.3l-0.1-0.1c-1.2-0.9-2-1.4-2.4-1.8l-0.1-0.1
	C45,16.4,45,16.3,45,16.2v-0.3c0-0.4,0.3-0.7,0.7-0.7l0,0h5.9c0.4,0,0.7,0.3,0.7,0.7c0,0,0,0,0,0v0.3c0,0.1,0,0.2-0.1,0.3L52,16.5
	c-0.4,0.3-1.2,0.9-2.4,1.8l-0.1,0.1c-0.1,0.1-0.3,0.2-0.4,0.3C48.9,18.8,48.8,18.8,48.6,18.9z"/>
<path class="st49" d="M15.2,45.7h-4.9c-0.2,0-0.4-0.2-0.4-0.4V10.9c0-0.8,0.7-1.5,1.5-1.5h36c0.8,0,1.5,0.7,1.5,1.5v1.5
	c0,0.2-0.2,0.4-0.4,0.4h-6.8c-0.8,0-1.5,0.7-1.5,1.5v13.2l2-2.8c0.8-1.1,2-1.7,3.3-1.7h3c0.2,0,0.4,0.2,0.4,0.4v15.5
	c0,0.2-0.2,0.4-0.4,0.4c-0.1,0-0.2,0-0.2-0.1c-0.3-0.2-0.6-0.3-0.9-0.3c-0.8,0-1.5,0.7-1.5,1.5c0,0.2-0.2,0.4-0.4,0.4
	c-0.2,0-0.4-0.2-0.4-0.4v-1.5c0-0.8-0.7-1.5-1.5-1.5c-0.8,0-1.5,0.7-1.5,1.5l0,0c0,0.2-0.2,0.4-0.4,0.4c-0.2,0-0.4-0.2-0.4-0.4v-1
	c0-0.8-0.7-1.5-1.5-1.5c-0.8,0-1.5,0.7-1.5,1.5c0,0.2-0.2,0.4-0.4,0.4c-0.2,0-0.4-0.2-0.4-0.4v-6.7c0-0.8-0.7-1.5-1.5-1.5
	c-0.8,0-1.5,0.7-1.5,1.5l0,0V45c0,0.2-0.2,0.4-0.4,0.4c-0.1,0-0.2,0-0.3-0.1l-1.9-1.9c-0.1-0.1-0.1-0.2-0.1-0.3V32l-2,2.8
	c-0.8,1.1-2,1.7-3.3,1.7h-6.9c-0.2,0-0.4-0.2-0.4-0.4c0-0.2,0.2-0.4,0.4-0.4h6.9c1.1,0,2.1-0.5,2.7-1.4l2.6-3.7
	c0.1-0.2,0.3-0.2,0.5-0.1c0.1,0.1,0.2,0.2,0.2,0.3V43l1.1,1.1V31.3c0-1.2,1-2.2,2.2-2.2s2.2,1,2.2,2.2l0,0v5.1
	c0.9-0.8,2.3-0.8,3.2,0.2c0.2,0.2,0.4,0.5,0.5,0.9c0.9-0.9,2.3-0.9,3.2,0c0.4,0.4,0.6,0.9,0.7,1.5c0.4-0.4,1-0.6,1.5-0.6
	c0.2,0,0.5,0,0.7,0.1V23.8h-2.6c-1.1,0-2.1,0.5-2.7,1.4l-2.7,3.7c-0.1,0.2-0.3,0.2-0.5,0.1c-0.1-0.1-0.2-0.2-0.2-0.3V14.3
	c0-1.2,1-2.2,2.2-2.2h6.4v-1.1c0-0.4-0.3-0.7-0.7-0.7h-36c-0.4,0-0.7,0.3-0.7,0.7v34h4.1v-7c0-1.2,1-2.2,2.2-2.2
	c0.2,0,0.4,0.2,0.4,0.4c0,0.2-0.2,0.4-0.4,0.4c-0.8,0-1.5,0.7-1.5,1.5v7.3c0,0,0,0.1,0,0.1C15.6,45.5,15.5,45.7,15.2,45.7
	C15.2,45.7,15.2,45.7,15.2,45.7L15.2,45.7z"/>
<path class="st49" d="M40,16.3H18c-0.2,0-0.4-0.2-0.4-0.4c0-0.2,0.2-0.4,0.4-0.4h21.6v-1.2c0-1.2,1-2.2,2.2-2.2h6.4v-1.1
	c0-0.4-0.3-0.7-0.7-0.7h-36c-0.4,0-0.7,0.3-0.7,0.7v4.6h2.6c0.2,0,0.4,0.2,0.4,0.4c0,0.2-0.2,0.4-0.4,0.4h-3c-0.2,0-0.4-0.2-0.4-0.4
	v-5c0-0.8,0.7-1.5,1.5-1.5h36c0.8,0,1.5,0.7,1.5,1.5v1.5c0,0.2-0.2,0.4-0.4,0.4h-6.8c-0.8,0-1.5,0.7-1.5,1.5v1.6
	C40.4,16.1,40.2,16.3,40,16.3z"/>
<path class="st49" d="M42.5,34.5h-4.4c-0.2,0-0.4-0.2-0.4-0.4v-2.9c0-0.8-0.7-1.5-1.5-1.5c-0.8,0-1.5,0.7-1.5,1.5l0,0v2.9
	c0,0.2-0.2,0.4-0.4,0.4h-1.9c-0.2,0-0.4-0.2-0.4-0.4V32l-1.7,2.4c-0.1,0.1-0.2,0.2-0.3,0.2H30c-1.2,0-2.2-1-2.2-2.2v-4
	c0-1.2,1-2.2,2.2-2.2h10c0.2,0,0.4,0.2,0.4,0.4v1.2l1-1.4c0.1-0.1,0.2-0.2,0.3-0.2h0.9c1.2,0,2.2,1,2.2,2.2v4
	C44.8,33.5,43.8,34.5,42.5,34.5L42.5,34.5z M38.5,33.8h4.1c0.8,0,1.5-0.7,1.5-1.5v-4c0-0.8-0.7-1.5-1.5-1.5h-0.7l-1.6,2.2
	c-0.1,0.2-0.3,0.2-0.5,0.1c-0.1-0.1-0.2-0.2-0.2-0.3v-2H30c-0.8,0-1.5,0.7-1.5,1.5v4c0,0.8,0.6,1.5,1.4,1.5l2.3-3.1
	c0.1-0.2,0.3-0.2,0.5-0.1c0.1,0.1,0.2,0.2,0.2,0.3v2.9H34v-2.5c0-1.2,1-2.2,2.2-2.2s2.2,1,2.2,2.2l0,0L38.5,33.8z"/>
<path class="st49" d="M30.6,47.4H17.1c-1.2,0-2.2-1-2.2-2.2v-7.3c0-1.2,1-2.2,2.2-2.2c0.2,0,0.4,0.2,0.4,0.4s-0.2,0.4-0.4,0.4
	c-0.8,0-1.5,0.7-1.5,1.5v7.3c0,0.8,0.7,1.5,1.5,1.5h12.8l-2-2c-0.5-0.5-0.5-1.4,0-2c1.1-1.1,2.9-1.3,4.2-0.4V32l-2,2.8
	c-0.8,1.1-2,1.7-3.3,1.7l-9.6,0c-0.2,0,0.2-0.1,0.2-0.3c0-0.2-0.8-0.4-0.6-0.4l10,0c1.1,0,2.1-0.5,2.7-1.4l2.6-3.7
	c0.1-0.2,0.3-0.2,0.5-0.1c0.1,0.1,0.2,0.2,0.2,0.3v12.3c0,0.2-0.2,0.4-0.4,0.4c-0.1,0-0.2,0-0.3-0.1l-0.2-0.2c-1-1-2.6-1-3.6,0l0,0
	c-0.3,0.3-0.3,0.7,0,0.9l2.6,2.6c0.1,0.2,0.1,0.4,0,0.5c-0.1,0.1-0.1,0.1-0.2,0.1C30.7,47.4,30.7,47.4,30.6,47.4L30.6,47.4z"/>
<path class="st49" d="M40,29c-0.2,0-0.4-0.2-0.4-0.4V14.3c0-1.2,1-2.2,2.2-2.2h13.5c1.2,0,2.2,1,2.2,2.2v7.3c0,1.2-1,2.2-2.2,2.2
	c-0.2,0-0.4-0.2-0.4-0.4s0.2-0.4,0.4-0.4c0.8,0,1.5-0.7,1.5-1.5v-7.3c0-0.8-0.7-1.5-1.5-1.5H41.8c-0.8,0-1.5,0.7-1.5,1.5v13.2l2-2.8
	c0.8-1.1,2-1.7,3.3-1.7h9.7c0.2,0-0.4,0.2-0.4,0.4c0,0.2,0.8,0.3,0.6,0.3l-10,0c-1.1,0-2.1,0.5-2.7,1.4l-2.7,3.7
	C40.2,29,40.1,29,40,29L40,29z"/>
<path class="st49" d="M47.1,57H36.6c-0.2,0-0.4-0.2-0.4-0.4v-3.7c0-0.2,0.2-0.4,0.4-0.4h5.8c0.2,0,0.4,0.2,0.4,0.4
	c0,0.2-0.2,0.4-0.4,0.4H37v3h9.8v-3h-0.9c-0.2,0-0.4-0.2-0.4-0.4c0-0.2,0.2-0.4,0.4-0.4h1.2c0.2,0,0.4,0.2,0.4,0.4v3.7
	C47.5,56.9,47.3,57,47.1,57z"/>
<path class="st49" d="M36.6,53.3c-0.1,0-0.2,0-0.3-0.1c-0.2-0.2-0.4-0.4-0.6-0.6l-7.9-7.9c-0.5-0.5-0.5-1.4,0-2
	c1.3-1.3,3.4-1.3,4.7,0l1.4,1.4V31.3c0-1.2,1-2.2,2.2-2.2s2.2,1,2.2,2.2l0,0v5.1c0.9-0.8,2.3-0.8,3.2,0.2c0.2,0.2,0.4,0.5,0.5,0.9
	c0.9-0.9,2.3-0.9,3.2,0c0.4,0.4,0.6,0.9,0.7,1.5c0.9-0.8,2.3-0.8,3.2,0.2c0.4,0.4,0.6,1,0.6,1.5v7.2c0,2.1-0.8,4.2-2.4,5.6
	c-0.1,0.1-0.3,0.1-0.4,0.1c0,0,0,0,0,0h-1.1c-0.2,0-0.4-0.2-0.4-0.4c0-0.2,0.2-0.4,0.4-0.4H47c1.3-1.3,2-3.1,2-5v-7.2
	c0-0.8-0.7-1.5-1.5-1.5S46,39.6,46,40.4c0,0,0,0,0,0c0,0.2-0.2,0.4-0.4,0.4c-0.2,0-0.4-0.2-0.4-0.4V39c0-0.8-0.7-1.5-1.5-1.5
	s-1.5,0.7-1.5,1.5l0,0c0,0.2-0.2,0.4-0.4,0.4c-0.2,0-0.4-0.2-0.4-0.4v-1c0-0.8-0.7-1.5-1.5-1.5c-0.8,0-1.5,0.7-1.5,1.5
	c0,0.2-0.2,0.4-0.4,0.4c-0.2,0-0.4-0.2-0.4-0.4v-6.7c0-0.8-0.7-1.5-1.5-1.5c-0.8,0-1.5,0.7-1.5,1.5l0,0v13.8c0,0.2-0.2,0.4-0.4,0.4
	c-0.1,0-0.2,0-0.3-0.1l-2-2c-1-1-2.6-1-3.6,0c-0.3,0.3-0.3,0.7,0,0.9l7.9,7.9c0.1,0.2,0.3,0.3,0.4,0.4h5.7c0.2,0,0.4,0.2,0.4,0.4
	c0,0.2-0.2,0.4-0.4,0.4h-5.6c0,0,0,0,0,0C36.7,53.3,36.7,53.3,36.6,53.3L36.6,53.3z"/>
<path class="st50" d="M36.3,20.9h-21c-0.2,0-0.4-0.2-0.4-0.4c0-0.2,0.2-0.4,0.4-0.4h21c0.2,0,0.4,0.2,0.4,0.4S36.5,20.9,36.3,20.9z"
	/>
<path class="st50" d="M18.4,23.8h-3.2c-0.2,0-0.4-0.2-0.4-0.4c0-0.2,0.2-0.4,0.4-0.4h3.2c0.2,0,0.4,0.2,0.4,0.4
	C18.8,23.7,18.6,23.8,18.4,23.8z"/>
<path class="st50" d="M36.3,23.8H21.8c-0.2,0-0.4-0.2-0.4-0.4c0-0.2,0.2-0.4,0.4-0.4h14.4c0.2,0,0.4,0.2,0.4,0.4
	S36.5,23.8,36.3,23.8z"/>
<path class="st50" d="M28.5,27.5H15.2c-0.2,0-0.4-0.2-0.4-0.4s0.2-0.4,0.4-0.4h13.2c0.2,0,0.4,0.2,0.4,0.4S28.7,27.5,28.5,27.5z"/>
<path class="st50" d="M28.1,31.2H15.2c-0.2,0-0.4-0.2-0.4-0.4c0-0.2,0.2-0.4,0.4-0.4h12.9c0.2,0,0.4,0.2,0.4,0.4
	C28.5,31,28.3,31.2,28.1,31.2z"/>
<path class="st49" d="M51.6,21h-5.9c-0.6,0-1-0.5-1-1c0,0,0,0,0,0v-3.8c0-0.2,0.2-0.4,0.4-0.4c0.2,0,0.4,0.2,0.4,0.4l0.1,0
	c0.4,0.3,1.2,0.9,2.4,1.8l0.1,0.1c0.1,0.1,0.3,0.2,0.4,0.3c0.1,0.1,0.2,0.1,0.3,0.1c0.1,0,0.2-0.1,0.3-0.1c0.1-0.1,0.3-0.2,0.4-0.3
	l0.2-0.1c1.2-0.9,2-1.5,2.4-1.8l0.1,0c0-0.1,0-0.1,0.1-0.2c0.1-0.1,0.2-0.2,0.3-0.2c0.2,0,0.4,0.2,0.4,0.4V20
	C52.6,20.6,52.2,21,51.6,21L51.6,21L51.6,21z M45.3,17.1V20c0,0.2,0.1,0.3,0.3,0.3c0,0,0,0,0,0h5.9c0.2,0,0.3-0.1,0.3-0.3
	c0,0,0,0,0,0v-2.9c-0.5,0.4-1.1,0.8-2,1.5l-0.2,0.1c-0.2,0.1-0.3,0.2-0.5,0.3c-0.4,0.3-0.9,0.3-1.3,0c-0.2-0.1-0.3-0.2-0.5-0.3
	l-0.1-0.1C46.5,17.9,45.8,17.4,45.3,17.1z"/>
<path class="st49" d="M48.6,19.2c-0.2,0-0.5-0.1-0.7-0.2c-0.2-0.1-0.3-0.2-0.5-0.3l-0.1-0.1c-1.2-0.9-2-1.5-2.4-1.8l-0.1-0.1
	c-0.2-0.1-0.3-0.4-0.3-0.6v-0.3c0-0.6,0.5-1.1,1-1.1c0,0,0,0,0,0h5.9c0.6,0,1,0.5,1,1.1c0,0,0,0,0,0v0.3c0,0.2-0.1,0.4-0.3,0.6
	l-0.1,0c-0.4,0.3-1.2,0.9-2.4,1.8l-0.2,0.1c-0.2,0.1-0.3,0.2-0.5,0.3C49.1,19.1,48.8,19.2,48.6,19.2L48.6,19.2z M45.3,16.1
	L45.3,16.1c0.5,0.4,1.3,1,2.5,1.8l0.1,0.1c0.1,0.1,0.3,0.2,0.4,0.3c0.1,0.1,0.2,0.1,0.3,0.1c0.1,0,0.2-0.1,0.3-0.1
	c0.1-0.1,0.3-0.2,0.4-0.3l0.2-0.1c1.2-0.9,2-1.5,2.4-1.8l0.1-0.1l0-0.2c0-0.2-0.1-0.3-0.3-0.3c0,0,0,0,0,0h-5.9
	c-0.2,0-0.3,0.1-0.3,0.3c0,0,0,0,0,0L45.3,16.1z"/>
<path class="st49" d="M19.4,45.6c-0.1,0-0.3,0-0.4-0.1c-0.1-0.1-0.2-0.3-0.3-0.4l-0.3-1.5c0-0.2,0-0.3,0.1-0.5
	c0.1-0.2,0.2-0.3,0.4-0.3l1.6-0.7c0.1-0.1,0.3-0.1,0.4,0c0.2,0,0.3,0.1,0.4,0.3l0.5,0.6c0.4-0.2,0.8-0.5,1.1-0.8
	c0.3-0.3,0.6-0.7,0.8-1.1l-0.6-0.5c-0.1-0.1-0.2-0.2-0.2-0.4c0-0.2,0-0.3,0-0.5l0.7-1.6c0.1-0.2,0.2-0.3,0.3-0.3
	c0.1-0.1,0.3-0.1,0.5-0.1l1.5,0.3c0.2,0,0.3,0.1,0.4,0.3c0.1,0.1,0.1,0.3,0.1,0.4c0,1.2-0.3,2.5-1,3.5c-0.6,1-1.5,1.9-2.5,2.5
	C21.9,45.2,20.6,45.6,19.4,45.6L19.4,45.6z M19.1,43.4l0.3,1.4c1.1,0,2.2-0.3,3.1-0.8c0.9-0.5,1.7-1.3,2.2-2.2
	c0.5-0.9,0.9-2,0.9-3.1l-1.4-0.3l-0.7,1.6l0.9,0.7c0.1,0.1,0.2,0.3,0.1,0.4c-0.3,0.6-0.6,1.1-1.1,1.6c-0.5,0.5-1,0.8-1.6,1.1
	c-0.1,0.1-0.3,0-0.4-0.1l-0.7-0.8L19.1,43.4z"/>
</svg>
