<svg width="24" height="24" viewBox="0 0 24 24" fill="none" xmlns="http://www.w3.org/2000/svg">
<g id="fluent:mail-28-filled">
<path id="Vector" d="M2.54175 9.13936L11.2932 13.6909C11.381 13.7365 11.4785 13.7604 11.5775 13.7604C11.6764 13.7604 11.7739 13.7365 11.8617 13.6909L20.6132 9.14018V17.0464C20.6132 17.7283 20.3523 18.3844 19.884 18.88C19.4157 19.3757 18.7755 19.6734 18.0947 19.712L17.9435 19.7161H5.21139C4.52949 19.7161 3.87342 19.4552 3.37777 18.9869C2.88212 18.5186 2.58446 17.8784 2.54586 17.1976L2.54175 17.0464V9.13936ZM5.21139 4.93036H17.9435C18.6254 4.93031 19.2815 5.19121 19.7772 5.65952C20.2728 6.12783 20.5705 6.76805 20.6091 7.44886L20.6132 7.6V7.75114L11.5775 12.4497L2.54175 7.75114V7.6C2.5417 6.9181 2.8026 6.26204 3.27091 5.76638C3.73922 5.27073 4.37944 4.97307 5.06025 4.93447L5.21139 4.93036Z" fill="#39E0F7"/>
</g>
</svg>
