<?xml version="1.0" encoding="utf-8"?>
<!-- Generator: Adobe Illustrator 24.3.0, SVG Export Plug-In . SVG Version: 6.00 Build 0)  -->
<svg version="1.1" id="Layer_1" xmlns="http://www.w3.org/2000/svg" xmlns:xlink="http://www.w3.org/1999/xlink" x="0px" y="0px"
	 viewBox="0 0 65 65" style="enable-background:new 0 0 65 65;" xml:space="preserve">
<style type="text/css">
	.st0{fill:#EBF7FB;}
	.st1{display:none;}
	.st2{display:inline;fill:#ED2224;}
	.st3{display:inline;fill:#010101;}
	.st4{display:inline;fill:#F9BD15;}
	.st5{display:inline;fill:#FCD82C;}
	.st6{display:inline;}
	.st7{fill:#FCD82C;}
	.st8{fill:#4187C7;stroke:#010101;stroke-width:0.5;stroke-miterlimit:10;}
	.st9{fill:#1F78BD;stroke:#010101;stroke-width:0.5;stroke-miterlimit:10;}
	.st10{fill:#E0F3FB;stroke:#010101;stroke-width:0.5;stroke-miterlimit:10;}
	.st11{fill:#C9EBFA;stroke:#010101;stroke-width:0.5;stroke-miterlimit:10;}
	.st12{fill:#8D9CA8;stroke:#010101;stroke-width:0.25;stroke-miterlimit:10;}
	.st13{fill:#FEE178;stroke:#010101;stroke-width:0.5;stroke-miterlimit:10;}
	.st14{fill:#FFD15C;stroke:#010101;stroke-width:0.5;stroke-miterlimit:10;}
	.st15{fill:#FEC446;stroke:#010101;stroke-width:0.5;stroke-miterlimit:10;}
	.st16{fill:#A0ADBB;stroke:#010101;stroke-width:0.5;stroke-miterlimit:10;}
	.st17{fill:#8D9CA8;stroke:#010101;stroke-width:0.5;stroke-miterlimit:10;}
	
		.st18{fill:none;stroke:#010101;stroke-width:0.5;stroke-linecap:round;stroke-linejoin:round;stroke-miterlimit:10;stroke-dasharray:2,1;}
	.st19{fill:none;stroke:#010101;stroke-width:0.5;stroke-miterlimit:10;}
	.st20{fill:none;stroke:#010101;stroke-width:9;stroke-miterlimit:10;}
	.st21{fill:none;stroke:#010101;stroke-width:0.25;stroke-miterlimit:10;}
	.st22{fill:#010101;}
	.st23{font-family:'MyriadPro-Bold';}
	.st24{font-size:6.6718px;}
</style>
<circle class="st0" cx="32.5" cy="32.5" r="32.5"/>
<g class="st1">
	<path class="st2" d="M51.43,51.92h-1.12c0.3-0.2,0.51-0.51,0.61-0.91h-3.96c0.1,0.3,0.3,0.61,0.61,0.91H35.7
		c0.1-0.2,0.2-0.41,0.2-0.61l0,0c0-0.61-0.51-1.12-1.01-1.12c-1.42-1.42-2.03-2.84-1.72-4.26h-7.61c0.3,1.42-0.3,2.84-1.72,4.26
		c-0.61,0-1.01,0.51-1.01,1.12l0,0c0,0.2,0.1,0.41,0.2,0.61H8.82c-0.3,0-0.51,0.2-0.51,0.51c0,0.3,0.2,0.51,0.51,0.51h42.61
		c0.3,0,0.51-0.2,0.51-0.51C51.83,52.23,51.63,51.92,51.43,51.92z"/>
	<path class="st2" d="M56.5,51.92h-2.54c-0.3,0-0.51,0.2-0.51,0.51c0,0.3,0.2,0.51,0.51,0.51h2.54c0.3,0,0.51-0.2,0.51-0.51
		C57,52.23,56.8,51.92,56.5,51.92z"/>
	<path class="st2" d="M12.07,44.92h33.27c-0.2-1.42-0.81-2.84-1.72-4.06c-0.3-0.3-0.51-0.61-0.71-1.01H9.84v2.74
		C9.84,43.91,10.85,44.92,12.07,44.92z M29.31,41.17c0.71,0,1.22,0.51,1.22,1.22c0,0.71-0.51,1.22-1.22,1.22s-1.22-0.51-1.22-1.22
		C28.09,41.78,28.6,41.17,29.31,41.17z"/>
	<path class="st3" d="M41.89,37.21H16.02c-0.3,0-0.51-0.2-0.51-0.51v-4.36c0-0.3,0.2-0.51,0.51-0.51H42.7c0.3,0,0.51,0.2,0.51,0.51
		l0,0c1.22-1.72,3.25-2.94,5.58-2.94V17.33c0-0.91-0.71-1.72-1.72-1.72h-35.5c-0.91,0-1.72,0.71-1.72,1.72v21.61H42.4
		C42.09,38.33,41.99,37.72,41.89,37.21z M33.06,28.9c0,0.3-0.2,0.51-0.51,0.51h-6.7c-0.3,0-0.51-0.2-0.51-0.51v-5.78
		c0-0.3,0.2-0.51,0.51-0.51h6.8c0.3,0,0.51,0.2,0.51,0.51C33.06,23.11,33.06,28.9,33.06,28.9z M43.41,23.11v5.78
		c0,0.3-0.2,0.51-0.51,0.51h-6.7c-0.3,0-0.51-0.2-0.51-0.51v-5.78c0-0.3,0.2-0.51,0.51-0.51h6.7
		C43.21,22.61,43.41,22.91,43.41,23.11z M39.15,18.35c0-0.1,0.1-0.2,0.2-0.2h2.94c0.1,0,0.2,0.1,0.2,0.2v1.12c0,0.1-0.1,0.2-0.2,0.2
		h-2.94c-0.1,0-0.2-0.1-0.2-0.2V18.35z M34.49,18.35c0-0.1,0.1-0.2,0.2-0.2h2.94c0.1,0,0.2,0.1,0.2,0.2v1.12c0,0.1-0.1,0.2-0.2,0.2
		h-2.94c-0.1,0-0.2-0.1-0.2-0.2V18.35z M29.92,18.35c0-0.1,0.1-0.2,0.2-0.2h2.94c0.1,0,0.2,0.1,0.2,0.2v1.12c0,0.1-0.1,0.2-0.2,0.2
		h-2.94c-0.1,0-0.2-0.1-0.2-0.2V18.35z M25.25,18.35c0-0.1,0.1-0.2,0.2-0.2h2.94c0.1,0,0.2,0.1,0.2,0.2v1.12c0,0.1-0.1,0.2-0.2,0.2
		h-2.94c-0.1,0-0.2-0.1-0.2-0.2V18.35z M20.59,18.35c0-0.1,0.1-0.2,0.2-0.2h2.94c0.1,0,0.2,0.1,0.2,0.2v1.12c0,0.1-0.1,0.2-0.2,0.2
		h-2.94c-0.1,0-0.2-0.1-0.2-0.2V18.35z M15.92,18.35c0-0.1,0.1-0.2,0.2-0.2h2.94c0.1,0,0.2,0.1,0.2,0.2v1.12c0,0.1-0.1,0.2-0.2,0.2
		h-2.94c-0.1,0-0.2-0.1-0.2-0.2L15.92,18.35z M15.01,28.9v-5.78c0-0.3,0.2-0.51,0.51-0.51h6.7c0.3,0,0.51,0.2,0.51,0.51v5.78
		c0,0.3-0.2,0.51-0.51,0.51h-6.7C15.31,29.4,15.01,29.2,15.01,28.9z"/>
	<path class="st4" d="M42.9,36.4c0,1.42,0.51,2.74,1.42,3.85c1.22,1.52,1.93,3.35,2.03,5.17h2.43v-6.8l-0.91,0.61
		c-0.2,0.1-0.41,0.1-0.51,0l-1.52-1.01c-0.2-0.1-0.3-0.41-0.1-0.61c0.1-0.2,0.41-0.3,0.61-0.1l1.32,0.91l1.32-0.91l0,0l0,0
		c0.1,0,0.1,0,0.2,0l0,0l0,0c0.1,0,0.1,0,0.2,0l0,0l0,0l1.32,0.91l1.32-0.91c0.2-0.1,0.51-0.1,0.61,0.1c0.1,0.2,0.1,0.51-0.1,0.61
		l-1.62,1.01c-0.2,0.1-0.41,0.1-0.51,0l-0.81-0.61v6.8h2.33v-0.41c0-1.83,0.61-3.55,1.72-5.07c0.81-1.12,1.22-2.33,1.12-3.65
		c-0.1-3.25-2.74-5.88-5.88-5.88C45.64,30.32,42.9,33.05,42.9,36.4z"/>
	<path class="st5" d="M52.24,48.78h-6.29c-0.41,0-0.61,0.3-0.61,0.61S45.64,50,45.95,50h6.29c0.41,0,0.61-0.3,0.61-0.61
		C52.85,49.08,52.54,48.78,52.24,48.78z"/>
	<path class="st5" d="M52.24,46.45h-6.29c-0.41,0-0.61,0.3-0.61,0.61c0,0.41,0.3,0.61,0.61,0.61h6.29c0.41,0,0.61-0.3,0.61-0.61
		C52.85,46.75,52.54,46.45,52.24,46.45z"/>
	<g class="st6">
		<g>
			<path class="st7" d="M59.24,31.53l-2.43,1.12c-0.3,0.1-0.51,0.51-0.3,0.91c0.1,0.3,0.51,0.51,0.91,0.3l2.43-1.12
				c0.3-0.1,0.51-0.51,0.3-0.91C59.95,31.53,59.54,31.33,59.24,31.53z"/>
		</g>
	</g>
	<g class="st6">
		<g>
			<path class="st7" d="M60.25,36.81l-2.74-0.1c-0.41,0-0.71,0.3-0.71,0.61c0,0.41,0.3,0.71,0.61,0.71l2.74,0.1
				c0.41,0,0.71-0.3,0.71-0.61C60.96,37.11,60.66,36.81,60.25,36.81z"/>
		</g>
	</g>
	<g class="st6">
		<g>
			<path class="st7" d="M55.58,27.48l-1.72,2.03c-0.2,0.3-0.2,0.71,0.1,0.91s0.71,0.2,0.91-0.1l1.72-2.03c0.2-0.3,0.2-0.71-0.1-0.91
				C56.19,27.17,55.79,27.17,55.58,27.48z"/>
		</g>
	</g>
	<g class="st6">
		<g>
			<path class="st7" d="M50.51,25.55l-0.1,2.74c0,0.41,0.3,0.71,0.61,0.71c0.41,0,0.71-0.3,0.71-0.61l0.1-2.74
				c0-0.41-0.3-0.71-0.61-0.71C50.82,24.94,50.51,25.24,50.51,25.55z"/>
		</g>
	</g>
</g>
<path class="st8" d="M54.49,18.03H11.9V13.7c0-0.67,0.54-1.21,1.21-1.21h40.16c0.67,0,1.21,0.54,1.21,1.21L54.49,18.03L54.49,18.03z
	"/>
<path class="st9" d="M53.28,12.49h-3.12c0.67,0,1.21,0.54,1.21,1.21v4.33h3.12V13.7C54.49,13.03,53.94,12.49,53.28,12.49z"/>
<path class="st10" d="M53.28,47.46H13.11c-0.67,0-1.21-0.54-1.21-1.21V18.03h42.59v28.22C54.49,46.92,53.94,47.46,53.28,47.46z"/>
<path class="st11" d="M51.37,18.03v28.22c0,0.67-0.54,1.21-1.21,1.21h3.12c0.67,0,1.21-0.54,1.21-1.21V18.03H51.37z"/>
<path class="st12" d="M51.2,24.26h-2.42c-0.29,0-0.52-0.23-0.52-0.52v-2.42c0-0.29,0.23-0.52,0.52-0.52h2.42
	c0.29,0,0.52,0.23,0.52,0.52v2.42C51.72,24.03,51.48,24.26,51.2,24.26z"/>
<path class="st12" d="M17.61,24.26h-2.42c-0.29,0-0.52-0.23-0.52-0.52v-2.42c0-0.29,0.23-0.52,0.52-0.52h2.42
	c0.29,0,0.52,0.23,0.52,0.52v2.42C18.13,24.03,17.9,24.26,17.61,24.26z"/>
<path class="st12" d="M51.2,37.94h-2.42c-0.29,0-0.52-0.23-0.52-0.52V35c0-0.29,0.23-0.52,0.52-0.52h2.42
	c0.29,0,0.52,0.23,0.52,0.52v2.42C51.72,37.71,51.48,37.94,51.2,37.94z"/>
<path class="st12" d="M17.61,37.94h-2.42c-0.29,0-0.52-0.23-0.52-0.52V35c0-0.29,0.23-0.52,0.52-0.52h2.42
	c0.29,0,0.52,0.23,0.52,0.52v2.42C18.13,37.71,17.9,37.94,17.61,37.94z"/>
<g>
	<path class="st13" d="M46.84,41.36l-7.87-2.99c-0.34-0.13-0.73-0.05-0.99,0.21c-0.26,0.26-0.34,0.64-0.21,0.99l2.99,7.87
		c0.18,0.47,0.64,0.79,1.15,0.78l3.51-0.04l2.16-2.16l0.04-3.51C47.63,42,47.32,41.54,46.84,41.36z M44.35,44.94
		c-0.54,0.54-1.42,0.54-1.96,0c-0.54-0.54-0.54-1.42,0-1.96c0.54-0.54,1.42-0.54,1.96,0C44.89,43.52,44.89,44.4,44.35,44.94z"/>
	<path class="st14" d="M46.84,41.36l-3.59-1.37c0.22,0.83,0.4,1.71,0.52,2.64c0.21,0.06,0.41,0.18,0.58,0.35
		c0.54,0.54,0.54,1.42,0,1.96c-0.12,0.12-0.25,0.21-0.39,0.27c0,0.14,0,0.28,0,0.43c0,0.87-0.05,1.73-0.14,2.55l1.6-0.02l2.16-2.16
		l0.04-3.51C47.63,42,47.32,41.54,46.84,41.36z"/>
	<path class="st15" d="M45.3,48.3l2.4-2.4c0.27-0.27,0.71-0.27,0.98,0l0.86,0.86c0.27,0.27,0.27,0.71,0,0.98l-2.4,2.4
		c-0.27,0.27-0.71,0.27-0.98,0l-0.86-0.86C45.03,49,45.03,48.57,45.3,48.3z"/>
	<polygon class="st16" points="49.54,47.73 47.14,50.13 49.88,55.08 54.49,55.08 54.49,50.47 	"/>
	<polygon class="st17" points="54.49,52.61 54.49,50.47 49.54,47.73 48.17,49.11 	"/>
</g>
<g>
	<g>
		<line class="st18" x1="49.99" y1="34.48" x2="49.99" y2="33.96"/>
		<line class="st18" x1="49.99" y1="31.51" x2="49.99" y2="26"/>
		<line class="st18" x1="49.99" y1="24.78" x2="49.99" y2="24.26"/>
	</g>
</g>
<g>
	<g>
		<line class="st18" x1="16.4" y1="34.48" x2="16.4" y2="33.96"/>
		<line class="st18" x1="16.4" y1="31.51" x2="16.4" y2="26"/>
		<line class="st18" x1="16.4" y1="24.78" x2="16.4" y2="24.26"/>
	</g>
</g>
<g>
	<g>
		<line class="st19" x1="48.26" y1="36.21" x2="47.74" y2="36.21"/>
		<line class="st18" x1="45" y1="36.21" x2="20.02" y2="36.21"/>
		<line class="st19" x1="18.65" y1="36.21" x2="18.13" y2="36.21"/>
	</g>
</g>
<g>
	<g>
		<line class="st18" x1="48.26" y1="22.53" x2="47.74" y2="22.53"/>
		<line class="st18" x1="45" y1="22.53" x2="20.02" y2="22.53"/>
		<line class="st18" x1="18.65" y1="22.53" x2="18.13" y2="22.53"/>
	</g>
</g>
<path class="st19" d="M25.13,12.49h28.14c0.67,0,1.21,0.54,1.21,1.21v11.4"/>
<path class="st19" d="M11.9,38.8V13.7c0-0.67,0.54-1.21,1.21-1.21h9.02"/>
<path class="st19" d="M11.9,41.8v4.45c0,0.67,0.54,1.21,1.21,1.21h27.57"/>
<path class="st19" d="M54.49,28.1v18.15c0,0.67-0.54,1.21-1.21,1.21h-3.48"/>
<line class="st19" x1="11.9" y1="18.03" x2="54.49" y2="18.03"/>
<line class="st20" x1="15.02" y1="15.26" x2="15.02" y2="15.26"/>
<line class="st21" x1="17.96" y1="15.26" x2="17.96" y2="15.26"/>
<line class="st21" x1="20.9" y1="15.26" x2="20.9" y2="15.26"/>
<path class="st19" d="M51.2,24.26h-2.42c-0.29,0-0.52-0.23-0.52-0.52v-2.42c0-0.29,0.23-0.52,0.52-0.52h2.42
	c0.29,0,0.52,0.23,0.52,0.52v2.42C51.72,24.03,51.48,24.26,51.2,24.26z"/>
<path class="st19" d="M17.61,24.26h-2.42c-0.29,0-0.52-0.23-0.52-0.52v-2.42c0-0.29,0.23-0.52,0.52-0.52h2.42
	c0.29,0,0.52,0.23,0.52,0.52v2.42C18.13,24.03,17.9,24.26,17.61,24.26z"/>
<path class="st19" d="M51.2,37.94h-2.42c-0.29,0-0.52-0.23-0.52-0.52V35c0-0.29,0.23-0.52,0.52-0.52h2.42
	c0.29,0,0.52,0.23,0.52,0.52v2.42C51.72,37.71,51.48,37.94,51.2,37.94z"/>
<path class="st19" d="M17.61,37.94h-2.42c-0.29,0-0.52-0.23-0.52-0.52V35c0-0.29,0.23-0.52,0.52-0.52h2.42
	c0.29,0,0.52,0.23,0.52,0.52v2.42C18.13,37.71,17.9,37.94,17.61,37.94z"/>
<path class="st19" d="M46.84,41.36l-7.87-2.99c-0.34-0.13-0.73-0.05-0.99,0.21c-0.26,0.26-0.34,0.64-0.21,0.99l2.99,7.87
	c0.18,0.47,0.64,0.79,1.15,0.78l3.51-0.04l2.16-2.16l0.04-3.51C47.63,42,47.32,41.54,46.84,41.36z M44.35,44.94
	c-0.54,0.54-1.42,0.54-1.96,0c-0.54-0.54-0.54-1.42,0-1.96c0.54-0.54,1.42-0.54,1.96,0C44.89,43.52,44.89,44.4,44.35,44.94z"/>
<line class="st19" x1="37.99" y1="38.58" x2="42.39" y2="42.98"/>
<line class="st21" x1="47.14" y1="50.13" x2="49.88" y2="55.08"/>
<line class="st21" x1="54.49" y1="50.47" x2="49.54" y2="47.73"/>
<path class="st21" d="M45.3,48.3l2.4-2.4c0.27-0.27,0.71-0.27,0.98,0l0.86,0.86c0.27,0.27,0.27,0.71,0,0.98l-2.4,2.4
	c-0.27,0.27-0.71,0.27-0.98,0l-0.86-0.86C45.03,49,45.03,48.57,45.3,48.3z"/>
<text transform="matrix(1 0 0 1 20.8096 31.0537)" class="st22 st23 st24">BRAND</text>
</svg>
